# MagicaVoxel @ Ephtracy

# group
o Niveau 6

# material
mtllib niveau 6.mtl
usemtl palette

# normals
vn -1 0 0
vn 1 0 0
vn 0 0 1
vn 0 0 -1
vn 0 -1 0
vn 0 1 0

# texcoords
vt 0.00195312 0.5
vt 0.0566406 0.5
vt 0.0917969 0.5
vt 0.962891 0.5

# verts
v -1.6 0 1.6
v -1.6 0 1.5
v -1.6 0 1.2
v -1.6 0 0.5
v -1.6 0 0.2
v -1.6 0 -0.8
v -1.6 0 -1.1
v -1.6 0 -1.6
v -1.6 0.1 1.6
v -1.6 0.1 1.5
v -1.6 0.1 1.2
v -1.6 0.1 0.5
v -1.6 0.1 0.2
v -1.6 0.1 -0.8
v -1.6 0.1 -1.1
v -1.6 0.1 -1.6
v -1.6 0.2 1.5
v -1.6 0.2 1.2
v -1.6 0.2 -0.8
v -1.6 0.2 -1.1
v -0.8 0.1 0.8
v -0.8 0.1 -0.8
v -0.8 0.2 0.8
v -0.8 0.2 -0.8
v -0.3 0.1 1
v -0.3 0.1 0.8
v -0.3 0.2 1
v -0.3 0.2 0.8
v -0.1 0.1 1.4
v -0.1 0.1 1.2
v -0.1 0.2 1.4
v -0.1 0.2 1.2
v 0.1 0.1 -0.8
v 0.1 0.1 -1.3
v 0.1 0.2 -0.8
v 0.1 0.2 -1.3
v 0.2 0.1 0.8
v 0.2 0.1 0.6
v 0.2 0.2 0.8
v 0.2 0.2 0.6
v 0.4 0.1 1.2
v 0.4 0.1 1
v 0.4 0.2 1.2
v 0.4 0.2 1
v 0.8 0.1 0.2
v 0.8 0.1 -0.5
v 0.8 0.2 0.2
v 0.8 0.2 -0.5
v -0.5 0.1 1.5
v -0.5 0.1 1.2
v -0.5 0.1 0.6
v -0.5 0.1 -1.1
v -0.5 0.2 1.5
v -0.5 0.2 1.2
v -0.5 0.2 0.6
v -0.5 0.2 -1.1
v -0.1 0.1 1
v -0.1 0.1 0.6
v -0.1 0.2 1
v -0.1 0.2 0.6
v 0.4 0.1 -1.1
v 0.4 0.1 -1.3
v 0.4 0.2 -1.1
v 0.4 0.2 -1.3
v 0.7 0.1 1.4
v 0.7 0.1 1
v 0.7 0.2 1.4
v 0.7 0.2 1
v 0.8 0.1 0.8
v 0.8 0.1 0.6
v 0.8 0.2 0.8
v 0.8 0.2 0.6
v 1.1 0.1 0.2
v 1.1 0.1 -0.2
v 1.1 0.2 0.2
v 1.1 0.2 -0.2
v 1.6 0 1.6
v 1.6 0 -0.2
v 1.6 0 -0.5
v 1.6 0 -0.8
v 1.6 0 -1.1
v 1.6 0 -1.6
v 1.6 0.1 1.6
v 1.6 0.1 -0.2
v 1.6 0.1 -0.5
v 1.6 0.1 -0.8
v 1.6 0.1 -1.1
v 1.6 0.1 -1.6
v 1.6 0.2 -0.2
v 1.6 0.2 -0.5
v 1.6 0.2 -0.8
v 1.6 0.2 -1.1
v -1.6 0 1.6
v -1.6 0.1 1.6
v 1.6 0 1.6
v 1.6 0.1 1.6
v -1.6 0.1 1.5
v -1.6 0.2 1.5
v -0.5 0.1 1.5
v -0.5 0.2 1.5
v -0.1 0.1 1.4
v -0.1 0.2 1.4
v 0.7 0.1 1.4
v 0.7 0.2 1.4
v -0.3 0.1 1
v -0.3 0.2 1
v -0.1 0.1 1
v -0.1 0.2 1
v -0.8 0.1 0.8
v -0.8 0.2 0.8
v -0.3 0.1 0.8
v -0.3 0.2 0.8
v 0.2 0.1 0.8
v 0.2 0.2 0.8
v 0.8 0.1 0.8
v 0.8 0.2 0.8
v 0.8 0.1 0.2
v 0.8 0.2 0.2
v 1.1 0.1 0.2
v 1.1 0.2 0.2
v 1.1 0.1 -0.2
v 1.1 0.2 -0.2
v 1.6 0.1 -0.2
v 1.6 0.2 -0.2
v -1.6 0.1 -0.8
v -1.6 0.2 -0.8
v -0.8 0.1 -0.8
v -0.8 0.2 -0.8
v 0.1 0.1 -0.8
v 0.1 0.2 -0.8
v 1.6 0.1 -0.8
v 1.6 0.2 -0.8
v -1.6 0.1 1.2
v -1.6 0.2 1.2
v -0.5 0.1 1.2
v -0.5 0.2 1.2
v -0.1 0.1 1.2
v -0.1 0.2 1.2
v 0.4 0.1 1.2
v 0.4 0.2 1.2
v 0.4 0.1 1
v 0.4 0.2 1
v 0.7 0.1 1
v 0.7 0.2 1
v -0.5 0.1 0.6
v -0.5 0.2 0.6
v -0.1 0.1 0.6
v -0.1 0.2 0.6
v 0.2 0.1 0.6
v 0.2 0.2 0.6
v 0.8 0.1 0.6
v 0.8 0.2 0.6
v 0.8 0.1 -0.5
v 0.8 0.2 -0.5
v 1.6 0.1 -0.5
v 1.6 0.2 -0.5
v -1.6 0.1 -1.1
v -1.6 0.2 -1.1
v -0.5 0.1 -1.1
v -0.5 0.2 -1.1
v 0.4 0.1 -1.1
v 0.4 0.2 -1.1
v 1.6 0.1 -1.1
v 1.6 0.2 -1.1
v 0.1 0.1 -1.3
v 0.1 0.2 -1.3
v 0.4 0.1 -1.3
v 0.4 0.2 -1.3
v -1.6 0 -1.6
v -1.6 0.1 -1.6
v 1.6 0 -1.6
v 1.6 0.1 -1.6
v -1.6 0 1.6
v 1.6 0 1.6
v -1.6 0 1.5
v -0.5 0 1.5
v -0.1 0 1.4
v 0.7 0 1.4
v -1.6 0 1.2
v -0.5 0 1.2
v -0.1 0 1.2
v 0.4 0 1.2
v -0.3 0 1
v -0.1 0 1
v 0.4 0 1
v 0.7 0 1
v 1.1 0 1
v 1.4 0 1
v 1 0 0.9
v 1.1 0 0.9
v 1.4 0 0.9
v 1.5 0 0.9
v -0.8 0 0.8
v -0.3 0 0.8
v 0.2 0 0.8
v 0.8 0 0.8
v -1.5 0 0.6
v -1.2 0 0.6
v -0.5 0 0.6
v -0.1 0 0.6
v 0.2 0 0.6
v 0.8 0 0.6
v 1 0 0.6
v 1.1 0 0.6
v 1.4 0 0.6
v 1.5 0 0.6
v -1.6 0 0.5
v -1.5 0 0.5
v -1.2 0 0.5
v -1.1 0 0.5
v 1.1 0 0.5
v 1.4 0 0.5
v -1.6 0 0.2
v -1.5 0 0.2
v -1.2 0 0.2
v -1.1 0 0.2
v 0.1 0 0.2
v 0.4 0 0.2
v 0.8 0 0.2
v 1.1 0 0.2
v -1.5 0 0.1
v -1.2 0 0.1
v 0 0 0.1
v 0.1 0 0.1
v 0.4 0 0.1
v 0.5 0 0.1
v 0 0 -0.2
v 0.1 0 -0.2
v 0.4 0 -0.2
v 0.5 0 -0.2
v 1.1 0 -0.2
v 1.6 0 -0.2
v 0.1 0 -0.3
v 0.4 0 -0.3
v 0.8 0 -0.5
v 1.6 0 -0.5
v -1.6 0 -0.8
v -0.8 0 -0.8
v 0.1 0 -0.8
v 1.6 0 -0.8
v -1.6 0 -1.1
v -0.5 0 -1.1
v 0.4 0 -1.1
v 1.6 0 -1.1
v 0.1 0 -1.3
v 0.4 0 -1.3
v -1.6 0 -1.6
v 1.6 0 -1.6
v -1.6 0.1 1.6
v 1.6 0.1 1.6
v -1.6 0.1 1.5
v -0.5 0.1 1.5
v -0.1 0.1 1.4
v 0.7 0.1 1.4
v -1.6 0.1 1.2
v -0.5 0.1 1.2
v -0.1 0.1 1.2
v 0.4 0.1 1.2
v -0.3 0.1 1
v -0.1 0.1 1
v 0.4 0.1 1
v 0.7 0.1 1
v 1.1 0.1 1
v 1.4 0.1 1
v 1 0.1 0.9
v 1.1 0.1 0.9
v 1.4 0.1 0.9
v 1.5 0.1 0.9
v -0.8 0.1 0.8
v -0.3 0.1 0.8
v 0.2 0.1 0.8
v 0.8 0.1 0.8
v -1.5 0.1 0.6
v -1.2 0.1 0.6
v -0.5 0.1 0.6
v -0.1 0.1 0.6
v 0.2 0.1 0.6
v 0.8 0.1 0.6
v 1 0.1 0.6
v 1.1 0.1 0.6
v 1.4 0.1 0.6
v 1.5 0.1 0.6
v -1.6 0.1 0.5
v -1.5 0.1 0.5
v -1.2 0.1 0.5
v -1.1 0.1 0.5
v 1.1 0.1 0.5
v 1.4 0.1 0.5
v -1.6 0.1 0.2
v -1.5 0.1 0.2
v -1.2 0.1 0.2
v -1.1 0.1 0.2
v 0.1 0.1 0.2
v 0.4 0.1 0.2
v 0.8 0.1 0.2
v 1.1 0.1 0.2
v -1.5 0.1 0.1
v -1.2 0.1 0.1
v 0 0.1 0.1
v 0.1 0.1 0.1
v 0.4 0.1 0.1
v 0.5 0.1 0.1
v 0 0.1 -0.2
v 0.1 0.1 -0.2
v 0.4 0.1 -0.2
v 0.5 0.1 -0.2
v 1.1 0.1 -0.2
v 1.6 0.1 -0.2
v 0.1 0.1 -0.3
v 0.4 0.1 -0.3
v 0.8 0.1 -0.5
v 1.6 0.1 -0.5
v -1.6 0.1 -0.8
v -0.8 0.1 -0.8
v 0.1 0.1 -0.8
v 1.6 0.1 -0.8
v -1.6 0.1 -1.1
v -0.5 0.1 -1.1
v 0.4 0.1 -1.1
v 1.6 0.1 -1.1
v 0.1 0.1 -1.3
v 0.4 0.1 -1.3
v -1.6 0.1 -1.6
v 1.6 0.1 -1.6
v -1.6 0.2 1.5
v -0.5 0.2 1.5
v -0.1 0.2 1.4
v 0.7 0.2 1.4
v -1.6 0.2 1.2
v -0.5 0.2 1.2
v -0.1 0.2 1.2
v 0.4 0.2 1.2
v -0.3 0.2 1
v -0.1 0.2 1
v 0.4 0.2 1
v 0.7 0.2 1
v -0.8 0.2 0.8
v -0.3 0.2 0.8
v 0.2 0.2 0.8
v 0.8 0.2 0.8
v -0.5 0.2 0.6
v -0.1 0.2 0.6
v 0.2 0.2 0.6
v 0.8 0.2 0.6
v 0.8 0.2 0.2
v 1.1 0.2 0.2
v 1.1 0.2 -0.2
v 1.6 0.2 -0.2
v 0.8 0.2 -0.5
v 1.6 0.2 -0.5
v -1.6 0.2 -0.8
v -0.8 0.2 -0.8
v 0.1 0.2 -0.8
v 1.6 0.2 -0.8
v -1.6 0.2 -1.1
v -0.5 0.2 -1.1
v 0.4 0.2 -1.1
v 1.6 0.2 -1.1
v 0.1 0.2 -1.3
v 0.4 0.2 -1.3

# faces
f 9/3/1 2/3/1 1/3/1
f 10/1/1 3/1/1 2/1/1
f 10/3/1 2/3/1 9/3/1
f 11/3/1 4/3/1 3/3/1
f 11/1/1 3/1/1 10/1/1
f 12/2/1 5/2/1 4/2/1
f 12/3/1 4/3/1 11/3/1
f 13/3/1 6/3/1 5/3/1
f 13/2/1 5/2/1 12/2/1
f 14/1/1 7/1/1 6/1/1
f 14/3/1 6/3/1 13/3/1
f 15/3/1 8/3/1 7/3/1
f 15/1/1 7/1/1 14/1/1
f 16/3/1 8/3/1 15/3/1
f 17/4/1 11/4/1 10/4/1
f 18/4/1 11/4/1 17/4/1
f 19/4/1 15/4/1 14/4/1
f 20/4/1 15/4/1 19/4/1
f 23/4/1 22/4/1 21/4/1
f 24/4/1 22/4/1 23/4/1
f 27/4/1 26/4/1 25/4/1
f 28/4/1 26/4/1 27/4/1
f 31/4/1 30/4/1 29/4/1
f 32/4/1 30/4/1 31/4/1
f 35/4/1 34/4/1 33/4/1
f 36/4/1 34/4/1 35/4/1
f 39/4/1 38/4/1 37/4/1
f 40/4/1 38/4/1 39/4/1
f 43/4/1 42/4/1 41/4/1
f 44/4/1 42/4/1 43/4/1
f 47/4/1 46/4/1 45/4/1
f 48/4/1 46/4/1 47/4/1
f 49/4/2 50/4/2 53/4/2
f 53/4/2 50/4/2 54/4/2
f 51/4/2 52/4/2 55/4/2
f 55/4/2 52/4/2 56/4/2
f 57/4/2 58/4/2 59/4/2
f 59/4/2 58/4/2 60/4/2
f 61/4/2 62/4/2 63/4/2
f 63/4/2 62/4/2 64/4/2
f 65/4/2 66/4/2 67/4/2
f 67/4/2 66/4/2 68/4/2
f 69/4/2 70/4/2 71/4/2
f 71/4/2 70/4/2 72/4/2
f 73/4/2 74/4/2 75/4/2
f 75/4/2 74/4/2 76/4/2
f 77/3/2 78/3/2 83/3/2
f 78/1/2 79/1/2 84/1/2
f 83/3/2 78/3/2 84/3/2
f 79/3/2 80/3/2 85/3/2
f 84/1/2 79/1/2 85/1/2
f 80/1/2 81/1/2 86/1/2
f 85/3/2 80/3/2 86/3/2
f 81/3/2 82/3/2 87/3/2
f 86/1/2 81/1/2 87/1/2
f 87/3/2 82/3/2 88/3/2
f 84/4/2 85/4/2 89/4/2
f 89/4/2 85/4/2 90/4/2
f 86/4/2 87/4/2 91/4/2
f 91/4/2 87/4/2 92/4/2
f 95/3/3 94/3/3 93/3/3
f 96/3/3 94/3/3 95/3/3
f 99/4/3 98/4/3 97/4/3
f 100/4/3 98/4/3 99/4/3
f 103/4/3 102/4/3 101/4/3
f 104/4/3 102/4/3 103/4/3
f 107/4/3 106/4/3 105/4/3
f 108/4/3 106/4/3 107/4/3
f 111/4/3 110/4/3 109/4/3
f 112/4/3 110/4/3 111/4/3
f 115/4/3 114/4/3 113/4/3
f 116/4/3 114/4/3 115/4/3
f 119/4/3 118/4/3 117/4/3
f 120/4/3 118/4/3 119/4/3
f 123/4/3 122/4/3 121/4/3
f 124/4/3 122/4/3 123/4/3
f 127/4/3 126/4/3 125/4/3
f 128/4/3 126/4/3 127/4/3
f 131/4/3 130/4/3 129/4/3
f 132/4/3 130/4/3 131/4/3
f 133/4/4 134/4/4 135/4/4
f 135/4/4 134/4/4 136/4/4
f 137/4/4 138/4/4 139/4/4
f 139/4/4 138/4/4 140/4/4
f 141/4/4 142/4/4 143/4/4
f 143/4/4 142/4/4 144/4/4
f 145/4/4 146/4/4 147/4/4
f 147/4/4 146/4/4 148/4/4
f 149/4/4 150/4/4 151/4/4
f 151/4/4 150/4/4 152/4/4
f 153/4/4 154/4/4 155/4/4
f 155/4/4 154/4/4 156/4/4
f 157/4/4 158/4/4 159/4/4
f 159/4/4 158/4/4 160/4/4
f 161/4/4 162/4/4 163/4/4
f 163/4/4 162/4/4 164/4/4
f 165/4/4 166/4/4 167/4/4
f 167/4/4 166/4/4 168/4/4
f 169/3/4 170/3/4 171/3/4
f 171/3/4 170/3/4 172/3/4
f 175/3/5 174/3/5 173/3/5
f 176/3/5 174/3/5 175/3/5
f 177/3/5 174/3/5 176/3/5
f 178/3/5 174/3/5 177/3/5
f 179/1/5 176/1/5 175/1/5
f 180/3/5 177/3/5 176/3/5
f 180/1/5 176/1/5 179/1/5
f 181/1/5 178/1/5 177/1/5
f 181/3/5 177/3/5 180/3/5
f 182/1/5 178/1/5 181/1/5
f 183/3/5 180/3/5 179/3/5
f 183/3/5 181/3/5 180/3/5
f 183/3/5 182/3/5 181/3/5
f 184/3/5 182/3/5 183/3/5
f 185/1/5 178/1/5 182/1/5
f 185/3/5 182/3/5 184/3/5
f 186/3/5 174/3/5 178/3/5
f 186/1/5 178/1/5 185/1/5
f 187/3/5 174/3/5 186/3/5
f 188/3/5 174/3/5 187/3/5
f 189/3/5 185/3/5 184/3/5
f 189/3/5 186/3/5 185/3/5
f 189/3/5 187/3/5 186/3/5
f 190/2/5 188/2/5 187/2/5
f 190/3/5 187/3/5 189/3/5
f 191/3/5 174/3/5 188/3/5
f 191/2/5 188/2/5 190/2/5
f 192/3/5 174/3/5 191/3/5
f 193/3/5 183/3/5 179/3/5
f 194/1/5 184/1/5 183/1/5
f 194/3/5 183/3/5 193/3/5
f 195/3/5 189/3/5 184/3/5
f 196/3/5 189/3/5 195/3/5
f 197/3/5 193/3/5 179/3/5
f 198/3/5 193/3/5 197/3/5
f 199/1/5 194/1/5 193/1/5
f 200/1/5 184/1/5 194/1/5
f 200/1/5 194/1/5 199/1/5
f 200/3/5 195/3/5 184/3/5
f 201/1/5 196/1/5 195/1/5
f 201/3/5 195/3/5 200/3/5
f 202/3/5 189/3/5 196/3/5
f 202/1/5 196/1/5 201/1/5
f 203/2/5 190/2/5 189/2/5
f 203/3/5 189/3/5 202/3/5
f 204/3/5 191/3/5 190/3/5
f 204/2/5 190/2/5 203/2/5
f 205/2/5 192/2/5 191/2/5
f 205/3/5 191/3/5 204/3/5
f 206/3/5 174/3/5 192/3/5
f 206/2/5 192/2/5 205/2/5
f 207/3/5 197/3/5 179/3/5
f 208/2/5 198/2/5 197/2/5
f 208/3/5 197/3/5 207/3/5
f 209/3/5 193/3/5 198/3/5
f 209/2/5 198/2/5 208/2/5
f 210/3/5 193/3/5 209/3/5
f 211/3/5 202/3/5 201/3/5
f 211/3/5 201/3/5 200/3/5
f 211/2/5 205/2/5 204/2/5
f 211/3/5 203/3/5 202/3/5
f 211/3/5 204/3/5 203/3/5
f 211/3/5 200/3/5 199/3/5
f 212/3/5 206/3/5 205/3/5
f 212/2/5 205/2/5 211/2/5
f 213/2/5 208/2/5 207/2/5
f 214/3/5 209/3/5 208/3/5
f 214/2/5 208/2/5 213/2/5
f 215/2/5 210/2/5 209/2/5
f 215/3/5 209/3/5 214/3/5
f 216/3/5 193/3/5 210/3/5
f 216/2/5 210/2/5 215/2/5
f 217/3/5 211/3/5 199/3/5
f 217/3/5 212/3/5 211/3/5
f 218/3/5 212/3/5 217/3/5
f 219/3/5 212/3/5 218/3/5
f 220/3/5 212/3/5 219/3/5
f 221/2/5 215/2/5 214/2/5
f 221/3/5 214/3/5 213/3/5
f 222/3/5 216/3/5 215/3/5
f 222/2/5 215/2/5 221/2/5
f 223/3/5 217/3/5 199/3/5
f 224/2/5 218/2/5 217/2/5
f 224/3/5 217/3/5 223/3/5
f 225/3/5 219/3/5 218/3/5
f 225/2/5 218/2/5 224/2/5
f 226/3/5 219/3/5 225/3/5
f 227/3/5 223/3/5 199/3/5
f 227/2/5 224/2/5 223/2/5
f 228/3/5 225/3/5 224/3/5
f 228/2/5 224/2/5 227/2/5
f 229/2/5 226/2/5 225/2/5
f 229/3/5 225/3/5 228/3/5
f 230/3/5 219/3/5 226/3/5
f 230/2/5 226/2/5 229/2/5
f 231/3/5 212/3/5 220/3/5
f 231/1/5 220/1/5 219/1/5
f 232/3/5 174/3/5 206/3/5
f 232/3/5 212/3/5 231/3/5
f 232/3/5 206/3/5 212/3/5
f 233/2/5 229/2/5 228/2/5
f 233/3/5 228/3/5 227/3/5
f 234/3/5 230/3/5 229/3/5
f 234/2/5 229/2/5 233/2/5
f 235/3/5 219/3/5 230/3/5
f 235/3/5 230/3/5 234/3/5
f 235/3/5 234/3/5 233/3/5
f 235/1/5 231/1/5 219/1/5
f 235/1/5 232/1/5 231/1/5
f 236/1/5 232/1/5 235/1/5
f 237/3/5 222/3/5 221/3/5
f 237/3/5 221/3/5 213/3/5
f 238/1/5 199/1/5 193/1/5
f 238/3/5 222/3/5 237/3/5
f 238/3/5 193/3/5 216/3/5
f 238/3/5 216/3/5 222/3/5
f 239/3/5 233/3/5 227/3/5
f 239/3/5 235/3/5 233/3/5
f 239/3/5 236/3/5 235/3/5
f 240/3/5 236/3/5 239/3/5
f 241/1/5 238/1/5 237/1/5
f 242/1/5 199/1/5 238/1/5
f 242/1/5 238/1/5 241/1/5
f 242/3/5 227/3/5 199/3/5
f 242/3/5 239/3/5 227/3/5
f 243/1/5 240/1/5 239/1/5
f 244/1/5 240/1/5 243/1/5
f 245/3/5 239/3/5 242/3/5
f 245/3/5 242/3/5 241/3/5
f 245/1/5 243/1/5 239/1/5
f 246/3/5 244/3/5 243/3/5
f 246/1/5 243/1/5 245/1/5
f 247/3/5 245/3/5 241/3/5
f 247/3/5 246/3/5 245/3/5
f 248/3/5 244/3/5 246/3/5
f 248/3/5 246/3/5 247/3/5
f 249/3/6 250/3/6 251/3/6
f 251/3/6 250/3/6 252/3/6
f 252/3/6 250/3/6 253/3/6
f 253/3/6 250/3/6 254/3/6
f 252/3/6 253/3/6 256/3/6
f 256/3/6 253/3/6 257/3/6
f 255/3/6 256/3/6 259/3/6
f 257/3/6 258/3/6 259/3/6
f 256/3/6 257/3/6 259/3/6
f 259/3/6 258/3/6 260/3/6
f 260/3/6 258/3/6 261/3/6
f 254/3/6 250/3/6 262/3/6
f 262/3/6 250/3/6 263/3/6
f 263/3/6 250/3/6 264/3/6
f 260/3/6 261/3/6 265/3/6
f 261/3/6 262/3/6 265/3/6
f 262/3/6 263/3/6 265/3/6
f 263/2/6 264/2/6 266/2/6
f 265/3/6 263/3/6 266/3/6
f 264/3/6 250/3/6 267/3/6
f 266/2/6 264/2/6 267/2/6
f 267/3/6 250/3/6 268/3/6
f 255/3/6 259/3/6 269/3/6
f 269/3/6 259/3/6 270/3/6
f 260/3/6 265/3/6 271/3/6
f 271/3/6 265/3/6 272/3/6
f 255/3/6 269/3/6 273/3/6
f 273/3/6 269/3/6 274/3/6
f 260/3/6 271/3/6 276/3/6
f 276/3/6 271/3/6 277/3/6
f 272/3/6 265/3/6 278/3/6
f 265/2/6 266/2/6 279/2/6
f 278/3/6 265/3/6 279/3/6
f 266/3/6 267/3/6 280/3/6
f 279/2/6 266/2/6 280/2/6
f 267/2/6 268/2/6 281/2/6
f 280/3/6 267/3/6 281/3/6
f 268/3/6 250/3/6 282/3/6
f 281/2/6 268/2/6 282/2/6
f 255/3/6 273/3/6 283/3/6
f 273/2/6 274/2/6 284/2/6
f 283/3/6 273/3/6 284/3/6
f 274/3/6 269/3/6 285/3/6
f 284/2/6 274/2/6 285/2/6
f 285/3/6 269/3/6 286/3/6
f 277/3/6 278/3/6 287/3/6
f 280/2/6 281/2/6 287/2/6
f 276/3/6 277/3/6 287/3/6
f 278/3/6 279/3/6 287/3/6
f 279/3/6 280/3/6 287/3/6
f 275/3/6 276/3/6 287/3/6
f 281/3/6 282/3/6 288/3/6
f 287/2/6 281/2/6 288/2/6
f 283/2/6 284/2/6 289/2/6
f 284/3/6 285/3/6 290/3/6
f 289/2/6 284/2/6 290/2/6
f 285/2/6 286/2/6 291/2/6
f 290/3/6 285/3/6 291/3/6
f 286/3/6 269/3/6 292/3/6
f 291/2/6 286/2/6 292/2/6
f 275/3/6 287/3/6 293/3/6
f 287/3/6 288/3/6 293/3/6
f 293/3/6 288/3/6 294/3/6
f 294/3/6 288/3/6 295/3/6
f 295/3/6 288/3/6 296/3/6
f 290/2/6 291/2/6 297/2/6
f 289/3/6 290/3/6 297/3/6
f 291/3/6 292/3/6 298/3/6
f 297/2/6 291/2/6 298/2/6
f 275/3/6 293/3/6 299/3/6
f 293/2/6 294/2/6 300/2/6
f 299/3/6 293/3/6 300/3/6
f 294/3/6 295/3/6 301/3/6
f 300/2/6 294/2/6 301/2/6
f 301/3/6 295/3/6 302/3/6
f 299/2/6 300/2/6 303/2/6
f 275/3/6 299/3/6 303/3/6
f 300/3/6 301/3/6 304/3/6
f 303/2/6 300/2/6 304/2/6
f 301/2/6 302/2/6 305/2/6
f 304/3/6 301/3/6 305/3/6
f 302/3/6 295/3/6 306/3/6
f 305/2/6 302/2/6 306/2/6
f 296/3/6 288/3/6 307/3/6
f 288/3/6 282/3/6 308/3/6
f 307/3/6 288/3/6 308/3/6
f 282/3/6 250/3/6 308/3/6
f 304/2/6 305/2/6 309/2/6
f 303/3/6 304/3/6 309/3/6
f 305/3/6 306/3/6 310/3/6
f 309/2/6 305/2/6 310/2/6
f 306/3/6 295/3/6 311/3/6
f 310/3/6 306/3/6 311/3/6
f 309/3/6 310/3/6 311/3/6
f 297/3/6 298/3/6 313/3/6
f 289/3/6 297/3/6 313/3/6
f 292/3/6 269/3/6 314/3/6
f 313/3/6 298/3/6 314/3/6
f 298/3/6 292/3/6 314/3/6
f 311/3/6 312/3/6 315/3/6
f 303/3/6 309/3/6 315/3/6
f 309/3/6 311/3/6 315/3/6
f 315/3/6 312/3/6 316/3/6
f 275/3/6 303/3/6 318/3/6
f 303/3/6 315/3/6 318/3/6
f 318/3/6 315/3/6 321/3/6
f 317/3/6 318/3/6 321/3/6
f 319/3/6 320/3/6 322/3/6
f 317/3/6 321/3/6 323/3/6
f 321/3/6 322/3/6 323/3/6
f 322/3/6 320/3/6 324/3/6
f 323/3/6 322/3/6 324/3/6
f 325/4/6 326/4/6 329/4/6
f 329/4/6 326/4/6 330/4/6
f 327/4/6 328/4/6 331/4/6
f 331/4/6 328/4/6 332/4/6
f 332/4/6 328/4/6 335/4/6
f 335/4/6 328/4/6 336/4/6
f 333/4/6 334/4/6 338/4/6
f 337/4/6 338/4/6 341/4/6
f 338/4/6 334/4/6 342/4/6
f 341/4/6 338/4/6 342/4/6
f 339/4/6 340/4/6 343/4/6
f 343/4/6 340/4/6 344/4/6
f 345/4/6 346/4/6 347/4/6
f 345/4/6 347/4/6 349/4/6
f 347/4/6 348/4/6 349/4/6
f 349/4/6 348/4/6 350/4/6
f 337/4/6 341/4/6 352/4/6
f 351/4/6 352/4/6 355/4/6
f 352/4/6 341/4/6 356/4/6
f 355/4/6 352/4/6 356/4/6
f 353/4/6 354/4/6 357/4/6
f 357/4/6 354/4/6 358/4/6
f 353/4/6 357/4/6 359/4/6
f 359/4/6 357/4/6 360/4/6
