# MagicaVoxel @ Ephtracy

# group
o Niveau IA

# material
mtllib niveau0-1-Niveau IA.mtl
usemtl palette

# normals
vn -1 0 0
vn 1 0 0
vn 0 0 1
vn 0 0 -1
vn 0 -1 0
vn 0 1 0

# texcoords
vt 0.00195312 0.5
vt 0.0917969 0.5
vt 0.876953 0.5

# verts
v -1.6 0 1.5
v -1.6 0 -1.5
v -1.6 0.1 1.5
v -1.6 0.1 1
v -1.6 0.1 0.9
v -1.6 0.1 -1.5
v -1.6 0.2 1
v -1.6 0.2 0.9
v -1.5 0.1 0.6
v -1.5 0.1 0.5
v -1.5 0.2 0.6
v -1.5 0.2 0.5
v -1.3 0.1 0.2
v -1.3 0.1 -1
v -1.3 0.2 0.2
v -1.3 0.2 -1
v -0.6 0.1 0.8
v -0.6 0.1 0.3
v -0.6 0.2 0.8
v -0.6 0.2 0.3
v -0.5 0.1 -1
v -0.5 0.1 -1.5
v -0.5 0.2 -1
v -0.5 0.2 -1.5
v -0.4 0.1 0.9
v -0.4 0.1 0.8
v -0.4 0.1 0.3
v -0.4 0.1 0.2
v -0.4 0.2 0.9
v -0.4 0.2 0.8
v -0.4 0.2 0.3
v -0.4 0.2 0.2
v 0.3 0.1 1
v 0.3 0.1 -1.5
v 0.3 0.2 1
v 0.3 0.2 -1.5
v 0.5 0.1 0
v 0.5 0.1 -0.1
v 0.5 0.2 0
v 0.5 0.2 -0.1
v -1.2 0.1 0.1
v -1.2 0.1 -0.9
v -1.2 0.2 0.1
v -1.2 0.2 -0.9
v -0.8 0.1 0.6
v -0.8 0.1 0.5
v -0.8 0.2 0.6
v -0.8 0.2 0.5
v -0.5 0.1 0.7
v -0.5 0.1 0.4
v -0.5 0.2 0.7
v -0.5 0.2 0.4
v -0.4 0.1 -0.9
v -0.4 0.1 -1.5
v -0.4 0.2 -0.9
v -0.4 0.2 -1.5
v -0.3 0.1 1
v -0.3 0.1 0.7
v -0.3 0.1 0.4
v -0.3 0.1 0.1
v -0.3 0.2 1
v -0.3 0.2 0.7
v -0.3 0.2 0.4
v -0.3 0.2 0.1
v 0.4 0.1 0.9
v 0.4 0.1 -1.5
v 0.4 0.2 0.9
v 0.4 0.2 -1.5
v 1.4 0.1 0
v 1.4 0.1 -0.1
v 1.4 0.2 0
v 1.4 0.2 -0.1
v 1.6 0 1.5
v 1.6 0 -1.5
v 1.6 0.1 1.5
v 1.6 0.1 1
v 1.6 0.1 0.9
v 1.6 0.1 -1.5
v 1.6 0.2 1
v 1.6 0.2 0.9
v -1.6 0 1.5
v -1.6 0.1 1.5
v 1.6 0 1.5
v 1.6 0.1 1.5
v -1.6 0.1 1
v -1.6 0.2 1
v -0.3 0.1 1
v -0.3 0.2 1
v 0.3 0.1 1
v 0.3 0.2 1
v 1.6 0.1 1
v 1.6 0.2 1
v -0.6 0.1 0.8
v -0.6 0.2 0.8
v -0.4 0.1 0.8
v -0.4 0.2 0.8
v -1.5 0.1 0.6
v -1.5 0.2 0.6
v -0.8 0.1 0.6
v -0.8 0.2 0.6
v -0.5 0.1 0.4
v -0.5 0.2 0.4
v -0.3 0.1 0.4
v -0.3 0.2 0.4
v -1.3 0.1 0.2
v -1.3 0.2 0.2
v -0.4 0.1 0.2
v -0.4 0.2 0.2
v 0.5 0.1 0
v 0.5 0.2 0
v 1.4 0.1 0
v 1.4 0.2 0
v -1.2 0.1 -0.9
v -1.2 0.2 -0.9
v -0.4 0.1 -0.9
v -0.4 0.2 -0.9
v -1.6 0.1 0.9
v -1.6 0.2 0.9
v -0.4 0.1 0.9
v -0.4 0.2 0.9
v 0.4 0.1 0.9
v 0.4 0.2 0.9
v 1.6 0.1 0.9
v 1.6 0.2 0.9
v -0.5 0.1 0.7
v -0.5 0.2 0.7
v -0.3 0.1 0.7
v -0.3 0.2 0.7
v -1.5 0.1 0.5
v -1.5 0.2 0.5
v -0.8 0.1 0.5
v -0.8 0.2 0.5
v -0.6 0.1 0.3
v -0.6 0.2 0.3
v -0.4 0.1 0.3
v -0.4 0.2 0.3
v -1.2 0.1 0.1
v -1.2 0.2 0.1
v -0.3 0.1 0.1
v -0.3 0.2 0.1
v 0.5 0.1 -0.1
v 0.5 0.2 -0.1
v 1.4 0.1 -0.1
v 1.4 0.2 -0.1
v -1.3 0.1 -1
v -1.3 0.2 -1
v -0.5 0.1 -1
v -0.5 0.2 -1
v -1.6 0 -1.5
v -1.6 0.1 -1.5
v -0.5 0.1 -1.5
v -0.5 0.2 -1.5
v -0.4 0.1 -1.5
v -0.4 0.2 -1.5
v 0.3 0.1 -1.5
v 0.3 0.2 -1.5
v 0.4 0.1 -1.5
v 0.4 0.2 -1.5
v 1.6 0 -1.5
v 1.6 0.1 -1.5
v -1.6 0 1.5
v 1.6 0 1.5
v -1.6 0 -1.5
v 1.6 0 -1.5
v -1.6 0.1 1.5
v 1.6 0.1 1.5
v -1.6 0.1 1
v -0.3 0.1 1
v 0.3 0.1 1
v 1.6 0.1 1
v -1.6 0.1 0.9
v -0.4 0.1 0.9
v 0.4 0.1 0.9
v 1.6 0.1 0.9
v -0.6 0.1 0.8
v -0.4 0.1 0.8
v -0.5 0.1 0.7
v -0.3 0.1 0.7
v -1.5 0.1 0.6
v -0.8 0.1 0.6
v -1.5 0.1 0.5
v -0.8 0.1 0.5
v -0.5 0.1 0.4
v -0.3 0.1 0.4
v -0.6 0.1 0.3
v -0.4 0.1 0.3
v -1.3 0.1 0.2
v -0.4 0.1 0.2
v -1.2 0.1 0.1
v -0.3 0.1 0.1
v 0.5 0.1 0
v 1.4 0.1 0
v 0.5 0.1 -0.1
v 1.4 0.1 -0.1
v -1.2 0.1 -0.9
v -0.4 0.1 -0.9
v -1.3 0.1 -1
v -0.5 0.1 -1
v -1.6 0.1 -1.5
v -0.5 0.1 -1.5
v -0.4 0.1 -1.5
v 0.3 0.1 -1.5
v 0.4 0.1 -1.5
v 1.6 0.1 -1.5
v -1.6 0.2 1
v -0.3 0.2 1
v 0.3 0.2 1
v 1.6 0.2 1
v -1.6 0.2 0.9
v -0.4 0.2 0.9
v 0.4 0.2 0.9
v 1.6 0.2 0.9
v -0.6 0.2 0.8
v -0.4 0.2 0.8
v -0.5 0.2 0.7
v -0.3 0.2 0.7
v -1.5 0.2 0.6
v -0.8 0.2 0.6
v -1.5 0.2 0.5
v -0.8 0.2 0.5
v -0.5 0.2 0.4
v -0.3 0.2 0.4
v -0.6 0.2 0.3
v -0.4 0.2 0.3
v -1.3 0.2 0.2
v -0.4 0.2 0.2
v -1.2 0.2 0.1
v -0.3 0.2 0.1
v 0.5 0.2 0
v 1.4 0.2 0
v 0.5 0.2 -0.1
v 1.4 0.2 -0.1
v -1.2 0.2 -0.9
v -0.4 0.2 -0.9
v -1.3 0.2 -1
v -0.5 0.2 -1
v -0.5 0.2 -1.5
v -0.4 0.2 -1.5
v 0.3 0.2 -1.5
v 0.4 0.2 -1.5

# faces
f 3/2/1 2/2/1 1/2/1
f 4/2/1 2/2/1 3/2/1
f 5/2/1 2/2/1 4/2/1
f 6/2/1 2/2/1 5/2/1
f 7/3/1 5/3/1 4/3/1
f 8/3/1 5/3/1 7/3/1
f 11/1/1 10/1/1 9/1/1
f 12/1/1 10/1/1 11/1/1
f 15/3/1 14/3/1 13/3/1
f 16/3/1 14/3/1 15/3/1
f 19/3/1 18/3/1 17/3/1
f 20/3/1 18/3/1 19/3/1
f 23/3/1 22/3/1 21/3/1
f 24/3/1 22/3/1 23/3/1
f 29/3/1 26/3/1 25/3/1
f 30/3/1 26/3/1 29/3/1
f 31/3/1 28/3/1 27/3/1
f 32/3/1 28/3/1 31/3/1
f 35/3/1 34/3/1 33/3/1
f 36/3/1 34/3/1 35/3/1
f 39/1/1 38/1/1 37/1/1
f 40/1/1 38/1/1 39/1/1
f 41/3/2 42/3/2 43/3/2
f 43/3/2 42/3/2 44/3/2
f 45/1/2 46/1/2 47/1/2
f 47/1/2 46/1/2 48/1/2
f 49/3/2 50/3/2 51/3/2
f 51/3/2 50/3/2 52/3/2
f 53/3/2 54/3/2 55/3/2
f 55/3/2 54/3/2 56/3/2
f 57/3/2 58/3/2 61/3/2
f 61/3/2 58/3/2 62/3/2
f 59/3/2 60/3/2 63/3/2
f 63/3/2 60/3/2 64/3/2
f 65/3/2 66/3/2 67/3/2
f 67/3/2 66/3/2 68/3/2
f 69/1/2 70/1/2 71/1/2
f 71/1/2 70/1/2 72/1/2
f 73/2/2 74/2/2 75/2/2
f 75/2/2 74/2/2 76/2/2
f 76/2/2 74/2/2 77/2/2
f 77/2/2 74/2/2 78/2/2
f 76/3/2 77/3/2 79/3/2
f 79/3/2 77/3/2 80/3/2
f 83/2/3 82/2/3 81/2/3
f 84/2/3 82/2/3 83/2/3
f 87/3/3 86/3/3 85/3/3
f 88/3/3 86/3/3 87/3/3
f 91/3/3 90/3/3 89/3/3
f 92/3/3 90/3/3 91/3/3
f 95/3/3 94/3/3 93/3/3
f 96/3/3 94/3/3 95/3/3
f 99/1/3 98/1/3 97/1/3
f 100/1/3 98/1/3 99/1/3
f 103/3/3 102/3/3 101/3/3
f 104/3/3 102/3/3 103/3/3
f 107/3/3 106/3/3 105/3/3
f 108/3/3 106/3/3 107/3/3
f 111/1/3 110/1/3 109/1/3
f 112/1/3 110/1/3 111/1/3
f 115/3/3 114/3/3 113/3/3
f 116/3/3 114/3/3 115/3/3
f 117/3/4 118/3/4 119/3/4
f 119/3/4 118/3/4 120/3/4
f 121/3/4 122/3/4 123/3/4
f 123/3/4 122/3/4 124/3/4
f 125/3/4 126/3/4 127/3/4
f 127/3/4 126/3/4 128/3/4
f 129/1/4 130/1/4 131/1/4
f 131/1/4 130/1/4 132/1/4
f 133/3/4 134/3/4 135/3/4
f 135/3/4 134/3/4 136/3/4
f 137/3/4 138/3/4 139/3/4
f 139/3/4 138/3/4 140/3/4
f 141/1/4 142/1/4 143/1/4
f 143/1/4 142/1/4 144/1/4
f 145/3/4 146/3/4 147/3/4
f 147/3/4 146/3/4 148/3/4
f 149/2/4 150/2/4 151/2/4
f 149/2/4 151/2/4 153/2/4
f 151/3/4 152/3/4 153/3/4
f 153/3/4 152/3/4 154/3/4
f 149/2/4 153/2/4 155/2/4
f 149/2/4 155/2/4 157/2/4
f 155/3/4 156/3/4 157/3/4
f 157/3/4 156/3/4 158/3/4
f 149/2/4 157/2/4 159/2/4
f 159/2/4 157/2/4 160/2/4
f 163/2/5 162/2/5 161/2/5
f 164/2/5 162/2/5 163/2/5
f 165/2/6 166/2/6 167/2/6
f 167/2/6 166/2/6 168/2/6
f 168/2/6 166/2/6 169/2/6
f 169/2/6 166/2/6 170/2/6
f 171/2/6 172/2/6 175/2/6
f 175/2/6 172/2/6 176/2/6
f 168/2/6 169/2/6 178/2/6
f 171/2/6 175/2/6 179/2/6
f 179/2/6 175/2/6 180/2/6
f 171/2/6 179/2/6 181/2/6
f 180/2/6 175/2/6 182/2/6
f 177/2/6 178/2/6 183/2/6
f 178/2/6 169/2/6 184/2/6
f 183/2/6 178/2/6 184/2/6
f 181/2/6 182/2/6 185/2/6
f 182/2/6 175/2/6 185/2/6
f 181/2/6 185/2/6 187/2/6
f 185/2/6 186/2/6 187/2/6
f 187/2/6 186/2/6 188/2/6
f 184/2/6 169/2/6 190/2/6
f 173/2/6 174/2/6 191/2/6
f 191/2/6 174/2/6 192/2/6
f 173/2/6 191/2/6 193/2/6
f 192/2/6 174/2/6 194/2/6
f 189/2/6 190/2/6 195/2/6
f 195/2/6 190/2/6 196/2/6
f 181/2/6 187/2/6 197/2/6
f 171/2/6 181/2/6 199/2/6
f 197/2/6 198/2/6 199/2/6
f 181/2/6 197/2/6 199/2/6
f 199/2/6 198/2/6 200/2/6
f 196/2/6 190/2/6 201/2/6
f 190/2/6 169/2/6 202/2/6
f 201/2/6 190/2/6 202/2/6
f 193/2/6 194/2/6 203/2/6
f 173/2/6 193/2/6 203/2/6
f 194/2/6 174/2/6 204/2/6
f 203/2/6 194/2/6 204/2/6
f 205/3/6 206/3/6 209/3/6
f 209/3/6 206/3/6 210/3/6
f 207/3/6 208/3/6 211/3/6
f 211/3/6 208/3/6 212/3/6
f 210/3/6 206/3/6 214/3/6
f 213/3/6 214/3/6 215/3/6
f 214/3/6 206/3/6 216/3/6
f 215/3/6 214/3/6 216/3/6
f 217/1/6 218/1/6 219/1/6
f 219/1/6 218/1/6 220/1/6
f 213/3/6 215/3/6 221/3/6
f 213/3/6 221/3/6 223/3/6
f 221/3/6 222/3/6 223/3/6
f 223/3/6 222/3/6 224/3/6
f 224/3/6 222/3/6 226/3/6
f 225/3/6 226/3/6 227/3/6
f 226/3/6 222/3/6 228/3/6
f 227/3/6 226/3/6 228/3/6
f 229/1/6 230/1/6 231/1/6
f 231/1/6 230/1/6 232/1/6
f 225/3/6 227/3/6 233/3/6
f 225/3/6 233/3/6 235/3/6
f 233/3/6 234/3/6 235/3/6
f 235/3/6 234/3/6 236/3/6
f 236/3/6 234/3/6 237/3/6
f 237/3/6 234/3/6 238/3/6
f 207/3/6 211/3/6 239/3/6
f 239/3/6 211/3/6 240/3/6
