# MagicaVoxel @ Ephtracy

# group
o Niveau 2

# material
mtllib Niveau 2.mtl
usemtl palette

# normals
vn -1 0 0
vn 1 0 0
vn 0 0 1
vn 0 0 -1
vn 0 -1 0
vn 0 1 0

# texcoords
vt 0.00195312 0.5
vt 0.0566406 0.5
vt 0.0917969 0.5
vt 0.958984 0.5

# verts
v -1.6 0 1.6
v -1.6 0 -0.4
v -1.6 0 -0.5
v -1.6 0 -0.6
v -1.6 0 -0.7
v -1.6 0 -1.6
v -1.6 0.1 -0.4
v -1.6 0.1 -0.5
v -1.6 0.1 -0.6
v -1.6 0.1 -0.7
v -1.6 0.2 1.6
v -1.6 0.2 -0.4
v -1.6 0.2 -0.7
v -1.6 0.2 -1.6
v -1.6 0.3 -0.4
v -1.6 0.3 -0.5
v -1.6 0.3 -0.6
v -1.6 0.3 -0.7
v -1.1 0.1 0.7
v -1.1 0.1 0.6
v -1.1 0.1 0.3
v -1.1 0.1 0.2
v -1.1 0.2 0.7
v -1.1 0.2 0.6
v -1.1 0.2 0.3
v -1.1 0.2 0.2
v -1 0.1 0.6
v -1 0.1 0.3
v -1 0.2 0.6
v -1 0.2 0.3
v -0.7 0.2 -0.7
v -0.7 0.2 -1.2
v -0.7 0.3 -0.7
v -0.7 0.3 -1.2
v -0.5 0.1 -0.5
v -0.5 0.1 -1.1
v -0.5 0.2 1.6
v -0.5 0.2 0.5
v -0.5 0.3 1.6
v -0.5 0.3 0.5
v -0.5 0.3 -0.5
v -0.5 0.3 -1.1
v -0.3 0.1 1.6
v -0.3 0.1 0.8
v -0.3 0.3 1.6
v -0.3 0.3 0.8
v 0 0.2 0.1
v 0 0.2 -0.6
v 0 0.3 0.1
v 0 0.3 -0.6
v 0.2 0.1 0
v 0.2 0.1 -0.4
v 0.2 0.3 0
v 0.2 0.3 -0.4
v 0.8 0.2 0.5
v 0.8 0.2 0.1
v 0.8 0.3 0.5
v 0.8 0.3 0.1
v 0.9 0.1 1.6
v 0.9 0.1 1.5
v 0.9 0.1 1.2
v 0.9 0.1 1.1
v 0.9 0.2 1.6
v 0.9 0.2 1.5
v 0.9 0.2 1.2
v 0.9 0.2 1.1
v 1 0.1 1.5
v 1 0.1 1.2
v 1 0.1 0.8
v 1 0.1 0.2
v 1 0.2 1.5
v 1 0.2 1.2
v 1 0.3 0.8
v 1 0.3 0.2
v 1.3 0.1 -0.9
v 1.3 0.1 -1
v 1.3 0.1 -1.3
v 1.3 0.1 -1.4
v 1.3 0.2 -0.9
v 1.3 0.2 -1
v 1.3 0.2 -1.3
v 1.3 0.2 -1.4
v 1.4 0.1 -1
v 1.4 0.1 -1.3
v 1.4 0.2 -1
v 1.4 0.2 -1.3
v -1.5 0.1 0.6
v -1.5 0.1 0.3
v -1.5 0.2 0.6
v -1.5 0.2 0.3
v -1.4 0.1 0.7
v -1.4 0.1 0.6
v -1.4 0.1 0.3
v -1.4 0.1 0.2
v -1.4 0.2 0.7
v -1.4 0.2 0.6
v -1.4 0.2 0.3
v -1.4 0.2 0.2
v -0.6 0.1 -0.6
v -0.6 0.1 -1.1
v -0.6 0.3 -0.6
v -0.6 0.3 -1.1
v -0.4 0.1 1.6
v -0.4 0.1 0.6
v -0.4 0.2 -0.4
v -0.4 0.2 -1.2
v -0.4 0.3 1.6
v -0.4 0.3 0.6
v -0.4 0.3 -0.4
v -0.4 0.3 -1.2
v -0.2 0.2 1.6
v -0.2 0.2 0.9
v -0.2 0.3 1.6
v -0.2 0.3 0.9
v 0.1 0.1 0
v 0.1 0.1 -0.5
v 0.1 0.3 0
v 0.1 0.3 -0.5
v 0.3 0.2 0.1
v 0.3 0.2 -0.3
v 0.3 0.3 0.1
v 0.3 0.3 -0.3
v 0.5 0.1 1.5
v 0.5 0.1 1.2
v 0.5 0.2 1.5
v 0.5 0.2 1.2
v 0.6 0.1 1.6
v 0.6 0.1 1.5
v 0.6 0.1 1.2
v 0.6 0.1 1.1
v 0.6 0.2 1.6
v 0.6 0.2 1.5
v 0.6 0.2 1.2
v 0.6 0.2 1.1
v 0.9 0.1 0.6
v 0.9 0.1 0.2
v 0.9 0.1 -1
v 0.9 0.1 -1.3
v 0.9 0.2 -1
v 0.9 0.2 -1.3
v 0.9 0.3 0.6
v 0.9 0.3 0.2
v 1 0.1 -0.9
v 1 0.1 -1
v 1 0.1 -1.3
v 1 0.1 -1.4
v 1 0.2 -0.9
v 1 0.2 -1
v 1 0.2 -1.3
v 1 0.2 -1.4
v 1.1 0.2 0.9
v 1.1 0.2 0.1
v 1.1 0.3 0.9
v 1.1 0.3 0.1
v 1.6 0 1.6
v 1.6 0 -0.3
v 1.6 0 -0.4
v 1.6 0 -0.5
v 1.6 0 -0.6
v 1.6 0 -1.6
v 1.6 0.1 -0.3
v 1.6 0.1 -0.4
v 1.6 0.1 -0.5
v 1.6 0.1 -0.6
v 1.6 0.2 1.6
v 1.6 0.2 -0.3
v 1.6 0.2 -0.6
v 1.6 0.2 -1.6
v 1.6 0.3 -0.3
v 1.6 0.3 -0.4
v 1.6 0.3 -0.5
v 1.6 0.3 -0.6
v -1.6 0 1.6
v -1.6 0.2 1.6
v -0.5 0 1.6
v -0.5 0.1 1.6
v -0.5 0.2 1.6
v -0.5 0.3 1.6
v -0.4 0 1.6
v -0.4 0.1 1.6
v -0.4 0.3 1.6
v -0.3 0 1.6
v -0.3 0.1 1.6
v -0.3 0.3 1.6
v -0.2 0 1.6
v -0.2 0.1 1.6
v -0.2 0.2 1.6
v -0.2 0.3 1.6
v 0.6 0 1.6
v 0.6 0.1 1.6
v 0.6 0.2 1.6
v 0.9 0 1.6
v 0.9 0.1 1.6
v 0.9 0.2 1.6
v 1.6 0 1.6
v 1.6 0.2 1.6
v 0.5 0.1 1.2
v 0.5 0.2 1.2
v 0.6 0.1 1.2
v 0.6 0.2 1.2
v 0.9 0.1 1.2
v 0.9 0.2 1.2
v 1 0.1 1.2
v 1 0.2 1.2
v 0.6 0.1 1.1
v 0.6 0.2 1.1
v 0.9 0.1 1.1
v 0.9 0.2 1.1
v -0.2 0.2 0.9
v -0.2 0.3 0.9
v 1.1 0.2 0.9
v 1.1 0.3 0.9
v -0.4 0.1 0.6
v -0.4 0.3 0.6
v 0.9 0.1 0.6
v 0.9 0.3 0.6
v -1.5 0.1 0.3
v -1.5 0.2 0.3
v -1.4 0.1 0.3
v -1.4 0.2 0.3
v -1.1 0.1 0.3
v -1.1 0.2 0.3
v -1 0.1 0.3
v -1 0.2 0.3
v -1.4 0.1 0.2
v -1.4 0.2 0.2
v -1.1 0.1 0.2
v -1.1 0.2 0.2
v 0.9 0.1 0.2
v 0.9 0.3 0.2
v 1 0.1 0.2
v 1 0.3 0.2
v 0 0.2 0.1
v 0 0.3 0.1
v 0.3 0.2 0.1
v 0.3 0.3 0.1
v 0.3 0.2 -0.3
v 0.3 0.3 -0.3
v 1.6 0.2 -0.3
v 1.6 0.3 -0.3
v -1.6 0.2 -0.4
v -1.6 0.3 -0.4
v -0.4 0.2 -0.4
v -0.4 0.3 -0.4
v 0.1 0.1 -0.5
v 0.1 0.3 -0.5
v 1.6 0.1 -0.5
v 1.6 0.3 -0.5
v -1.6 0.1 -0.6
v -1.6 0.3 -0.6
v -0.6 0.1 -0.6
v -0.6 0.3 -0.6
v -0.6 0.1 -1.1
v -0.6 0.3 -1.1
v -0.5 0.1 -1.1
v -0.5 0.3 -1.1
v 0.9 0.1 -1.3
v 0.9 0.2 -1.3
v 1 0.1 -1.3
v 1 0.2 -1.3
v 1.3 0.1 -1.3
v 1.3 0.2 -1.3
v 1.4 0.1 -1.3
v 1.4 0.2 -1.3
v 1 0.1 -1.4
v 1 0.2 -1.4
v 1.3 0.1 -1.4
v 1.3 0.2 -1.4
v 0.5 0.1 1.5
v 0.5 0.2 1.5
v 0.6 0.1 1.5
v 0.6 0.2 1.5
v 0.9 0.1 1.5
v 0.9 0.2 1.5
v 1 0.1 1.5
v 1 0.2 1.5
v -0.3 0.1 0.8
v -0.3 0.3 0.8
v 1 0.1 0.8
v 1 0.3 0.8
v -1.4 0.1 0.7
v -1.4 0.2 0.7
v -1.1 0.1 0.7
v -1.1 0.2 0.7
v -1.5 0.1 0.6
v -1.5 0.2 0.6
v -1.4 0.1 0.6
v -1.4 0.2 0.6
v -1.1 0.1 0.6
v -1.1 0.2 0.6
v -1 0.1 0.6
v -1 0.2 0.6
v -0.5 0.2 0.5
v -0.5 0.3 0.5
v 0.8 0.2 0.5
v 0.8 0.3 0.5
v 0.8 0.2 0.1
v 0.8 0.3 0.1
v 1.1 0.2 0.1
v 1.1 0.3 0.1
v 0.1 0.1 0
v 0.1 0.3 0
v 0.2 0.1 0
v 0.2 0.3 0
v 0.2 0.1 -0.4
v 0.2 0.3 -0.4
v 1.6 0.1 -0.4
v 1.6 0.3 -0.4
v -1.6 0.1 -0.5
v -1.6 0.3 -0.5
v -0.5 0.1 -0.5
v -0.5 0.3 -0.5
v 0 0.2 -0.6
v 0 0.3 -0.6
v 1.6 0.2 -0.6
v 1.6 0.3 -0.6
v -1.6 0.2 -0.7
v -1.6 0.3 -0.7
v -0.7 0.2 -0.7
v -0.7 0.3 -0.7
v 1 0.1 -0.9
v 1 0.2 -0.9
v 1.3 0.1 -0.9
v 1.3 0.2 -0.9
v 0.9 0.1 -1
v 0.9 0.2 -1
v 1 0.1 -1
v 1 0.2 -1
v 1.3 0.1 -1
v 1.3 0.2 -1
v 1.4 0.1 -1
v 1.4 0.2 -1
v -0.7 0.2 -1.2
v -0.7 0.3 -1.2
v -0.4 0.2 -1.2
v -0.4 0.3 -1.2
v -1.6 0 -1.6
v -1.6 0.2 -1.6
v 1.6 0 -1.6
v 1.6 0.2 -1.6
v -1.6 0 1.6
v -0.5 0 1.6
v -0.4 0 1.6
v -0.3 0 1.6
v -0.2 0 1.6
v 0.6 0 1.6
v 0.9 0 1.6
v 1.6 0 1.6
v 0.5 0 1.5
v 0.6 0 1.5
v 0.9 0 1.5
v 1 0 1.5
v 0.5 0 1.2
v 0.6 0 1.2
v 0.9 0 1.2
v 1 0 1.2
v 0.6 0 1.1
v 0.9 0 1.1
v -0.2 0 0.9
v 1.1 0 0.9
v -0.3 0 0.8
v 1 0 0.8
v -1.4 0 0.7
v -1.1 0 0.7
v -1.5 0 0.6
v -1.4 0 0.6
v -1.1 0 0.6
v -1 0 0.6
v -0.4 0 0.6
v 0.9 0 0.6
v -0.5 0 0.5
v 0.8 0 0.5
v -1.5 0 0.3
v -1.4 0 0.3
v -1.1 0 0.3
v -1 0 0.3
v -1.4 0 0.2
v -1.1 0 0.2
v 0.9 0 0.2
v 1 0 0.2
v 0 0 0.1
v 0.3 0 0.1
v 0.8 0 0.1
v 1.1 0 0.1
v 0.1 0 0
v 0.2 0 0
v 0.3 0 -0.3
v 1.6 0 -0.3
v -1.6 0 -0.4
v -0.4 0 -0.4
v 0.2 0 -0.4
v 1.6 0 -0.4
v -1.6 0 -0.5
v -0.5 0 -0.5
v 0.1 0 -0.5
v 1.6 0 -0.5
v -1.6 0 -0.6
v -0.6 0 -0.6
v 0 0 -0.6
v 1.6 0 -0.6
v -1.6 0 -0.7
v -0.7 0 -0.7
v 1 0 -0.9
v 1.3 0 -0.9
v 0.9 0 -1
v 1 0 -1
v 1.3 0 -1
v 1.4 0 -1
v -0.6 0 -1.1
v -0.5 0 -1.1
v -0.7 0 -1.2
v -0.4 0 -1.2
v 0.9 0 -1.3
v 1 0 -1.3
v 1.3 0 -1.3
v 1.4 0 -1.3
v 1 0 -1.4
v 1.3 0 -1.4
v -1.6 0 -1.6
v 1.6 0 -1.6
v -0.4 0.1 1.6
v -0.3 0.1 1.6
v 0.6 0.1 1.6
v 0.9 0.1 1.6
v 0.5 0.1 1.5
v 0.6 0.1 1.5
v 0.9 0.1 1.5
v 1 0.1 1.5
v 0.5 0.1 1.2
v 0.6 0.1 1.2
v 0.9 0.1 1.2
v 1 0.1 1.2
v 0.6 0.1 1.1
v 0.9 0.1 1.1
v -0.3 0.1 0.8
v 1 0.1 0.8
v -1.4 0.1 0.7
v -1.1 0.1 0.7
v -1.5 0.1 0.6
v -1.4 0.1 0.6
v -1.1 0.1 0.6
v -1 0.1 0.6
v -0.4 0.1 0.6
v 0.9 0.1 0.6
v -1.5 0.1 0.3
v -1.4 0.1 0.3
v -1.1 0.1 0.3
v -1 0.1 0.3
v -1.4 0.1 0.2
v -1.1 0.1 0.2
v 0.9 0.1 0.2
v 1 0.1 0.2
v 0.1 0.1 0
v 0.2 0.1 0
v 0.2 0.1 -0.4
v 1.6 0.1 -0.4
v -1.6 0.1 -0.5
v -0.5 0.1 -0.5
v 0.1 0.1 -0.5
v 1.6 0.1 -0.5
v -1.6 0.1 -0.6
v -0.6 0.1 -0.6
v 1 0.1 -0.9
v 1.3 0.1 -0.9
v 0.9 0.1 -1
v 1 0.1 -1
v 1.3 0.1 -1
v 1.4 0.1 -1
v -0.6 0.1 -1.1
v -0.5 0.1 -1.1
v 0.9 0.1 -1.3
v 1 0.1 -1.3
v 1.3 0.1 -1.3
v 1.4 0.1 -1.3
v 1 0.1 -1.4
v 1.3 0.1 -1.4
v -1.6 0.2 1.6
v -0.5 0.2 1.6
v -0.2 0.2 1.6
v 0.6 0.2 1.6
v 0.9 0.2 1.6
v 1.6 0.2 1.6
v 0.5 0.2 1.5
v 0.6 0.2 1.5
v 0.9 0.2 1.5
v 1 0.2 1.5
v 0.5 0.2 1.2
v 0.6 0.2 1.2
v 0.9 0.2 1.2
v 1 0.2 1.2
v 0.6 0.2 1.1
v 0.9 0.2 1.1
v -0.2 0.2 0.9
v 1.1 0.2 0.9
v -1.4 0.2 0.7
v -1.1 0.2 0.7
v -1.5 0.2 0.6
v -1.4 0.2 0.6
v -1.1 0.2 0.6
v -1 0.2 0.6
v -0.5 0.2 0.5
v 0.8 0.2 0.5
v -1.5 0.2 0.3
v -1.4 0.2 0.3
v -1.1 0.2 0.3
v -1 0.2 0.3
v -1.4 0.2 0.2
v -1.1 0.2 0.2
v 0 0.2 0.1
v 0.3 0.2 0.1
v 0.8 0.2 0.1
v 1.1 0.2 0.1
v 0.3 0.2 -0.3
v 1.6 0.2 -0.3
v -1.6 0.2 -0.4
v -0.4 0.2 -0.4
v 0 0.2 -0.6
v 1.6 0.2 -0.6
v -1.6 0.2 -0.7
v -0.7 0.2 -0.7
v 1 0.2 -0.9
v 1.3 0.2 -0.9
v 0.9 0.2 -1
v 1 0.2 -1
v 1.3 0.2 -1
v 1.4 0.2 -1
v -0.7 0.2 -1.2
v -0.4 0.2 -1.2
v 0.9 0.2 -1.3
v 1 0.2 -1.3
v 1.3 0.2 -1.3
v 1.4 0.2 -1.3
v 1 0.2 -1.4
v 1.3 0.2 -1.4
v -1.6 0.2 -1.6
v 1.6 0.2 -1.6
v -0.5 0.3 1.6
v -0.4 0.3 1.6
v -0.3 0.3 1.6
v -0.2 0.3 1.6
v -0.2 0.3 0.9
v 1.1 0.3 0.9
v -0.3 0.3 0.8
v 1 0.3 0.8
v -0.4 0.3 0.6
v 0.9 0.3 0.6
v -0.5 0.3 0.5
v 0.8 0.3 0.5
v 0.9 0.3 0.2
v 1 0.3 0.2
v 0 0.3 0.1
v 0.3 0.3 0.1
v 0.8 0.3 0.1
v 1.1 0.3 0.1
v 0.1 0.3 0
v 0.2 0.3 0
v 0.3 0.3 -0.3
v 1.6 0.3 -0.3
v -1.6 0.3 -0.4
v -0.4 0.3 -0.4
v 0.2 0.3 -0.4
v 1.6 0.3 -0.4
v -1.6 0.3 -0.5
v -0.5 0.3 -0.5
v 0.1 0.3 -0.5
v 1.6 0.3 -0.5
v -1.6 0.3 -0.6
v -0.6 0.3 -0.6
v 0 0.3 -0.6
v 1.6 0.3 -0.6
v -1.6 0.3 -0.7
v -0.7 0.3 -0.7
v -0.6 0.3 -1.1
v -0.5 0.3 -1.1
v -0.7 0.3 -1.2
v -0.4 0.3 -1.2

# faces
f 7/3/1 2/3/1 1/3/1
f 7/1/1 3/1/1 2/1/1
f 8/3/1 4/3/1 3/3/1
f 8/1/1 3/1/1 7/1/1
f 9/1/1 5/1/1 4/1/1
f 9/3/1 4/3/1 8/3/1
f 10/3/1 6/3/1 5/3/1
f 10/1/1 5/1/1 9/1/1
f 11/3/1 7/3/1 1/3/1
f 12/4/1 8/4/1 7/4/1
f 12/3/1 7/3/1 11/3/1
f 13/3/1 6/3/1 10/3/1
f 13/4/1 10/4/1 9/4/1
f 14/3/1 6/3/1 13/3/1
f 15/4/1 8/4/1 12/4/1
f 16/4/1 8/4/1 15/4/1
f 17/4/1 13/4/1 9/4/1
f 18/4/1 13/4/1 17/4/1
f 23/3/1 20/3/1 19/3/1
f 24/3/1 20/3/1 23/3/1
f 25/3/1 22/3/1 21/3/1
f 26/3/1 22/3/1 25/3/1
f 29/3/1 28/3/1 27/3/1
f 30/3/1 28/3/1 29/3/1
f 33/4/1 32/4/1 31/4/1
f 34/4/1 32/4/1 33/4/1
f 39/4/1 38/4/1 37/4/1
f 40/4/1 38/4/1 39/4/1
f 41/4/1 36/4/1 35/4/1
f 42/4/1 36/4/1 41/4/1
f 45/4/1 44/4/1 43/4/1
f 46/4/1 44/4/1 45/4/1
f 49/4/1 48/4/1 47/4/1
f 50/4/1 48/4/1 49/4/1
f 53/4/1 52/4/1 51/4/1
f 54/4/1 52/4/1 53/4/1
f 57/4/1 56/4/1 55/4/1
f 58/4/1 56/4/1 57/4/1
f 63/3/1 60/3/1 59/3/1
f 64/3/1 60/3/1 63/3/1
f 65/3/1 62/3/1 61/3/1
f 66/3/1 62/3/1 65/3/1
f 71/3/1 68/3/1 67/3/1
f 72/3/1 68/3/1 71/3/1
f 73/4/1 70/4/1 69/4/1
f 74/4/1 70/4/1 73/4/1
f 79/3/1 76/3/1 75/3/1
f 80/3/1 76/3/1 79/3/1
f 81/3/1 78/3/1 77/3/1
f 82/3/1 78/3/1 81/3/1
f 85/3/1 84/3/1 83/3/1
f 86/3/1 84/3/1 85/3/1
f 87/3/2 88/3/2 89/3/2
f 89/3/2 88/3/2 90/3/2
f 91/3/2 92/3/2 95/3/2
f 95/3/2 92/3/2 96/3/2
f 93/3/2 94/3/2 97/3/2
f 97/3/2 94/3/2 98/3/2
f 99/4/2 100/4/2 101/4/2
f 101/4/2 100/4/2 102/4/2
f 103/4/2 104/4/2 107/4/2
f 107/4/2 104/4/2 108/4/2
f 105/4/2 106/4/2 109/4/2
f 109/4/2 106/4/2 110/4/2
f 111/4/2 112/4/2 113/4/2
f 113/4/2 112/4/2 114/4/2
f 115/4/2 116/4/2 117/4/2
f 117/4/2 116/4/2 118/4/2
f 119/4/2 120/4/2 121/4/2
f 121/4/2 120/4/2 122/4/2
f 123/3/2 124/3/2 125/3/2
f 125/3/2 124/3/2 126/3/2
f 127/3/2 128/3/2 131/3/2
f 131/3/2 128/3/2 132/3/2
f 129/3/2 130/3/2 133/3/2
f 133/3/2 130/3/2 134/3/2
f 137/3/2 138/3/2 139/3/2
f 139/3/2 138/3/2 140/3/2
f 135/4/2 136/4/2 141/4/2
f 141/4/2 136/4/2 142/4/2
f 143/3/2 144/3/2 147/3/2
f 147/3/2 144/3/2 148/3/2
f 145/3/2 146/3/2 149/3/2
f 149/3/2 146/3/2 150/3/2
f 151/4/2 152/4/2 153/4/2
f 153/4/2 152/4/2 154/4/2
f 155/3/2 156/3/2 161/3/2
f 156/1/2 157/1/2 161/1/2
f 157/3/2 158/3/2 162/3/2
f 161/1/2 157/1/2 162/1/2
f 158/1/2 159/1/2 163/1/2
f 162/3/2 158/3/2 163/3/2
f 159/3/2 160/3/2 164/3/2
f 163/1/2 159/1/2 164/1/2
f 155/3/2 161/3/2 165/3/2
f 161/4/2 162/4/2 166/4/2
f 165/3/2 161/3/2 166/3/2
f 164/3/2 160/3/2 167/3/2
f 163/4/2 164/4/2 167/4/2
f 167/3/2 160/3/2 168/3/2
f 166/4/2 162/4/2 169/4/2
f 169/4/2 162/4/2 170/4/2
f 163/4/2 167/4/2 171/4/2
f 171/4/2 167/4/2 172/4/2
f 175/3/3 174/3/3 173/3/3
f 176/3/3 174/3/3 175/3/3
f 177/3/3 174/3/3 176/3/3
f 179/1/3 176/1/3 175/1/3
f 180/4/3 178/4/3 177/4/3
f 180/1/3 176/1/3 179/1/3
f 180/4/3 177/4/3 176/4/3
f 181/4/3 178/4/3 180/4/3
f 182/3/3 180/3/3 179/3/3
f 183/3/3 180/3/3 182/3/3
f 185/1/3 183/1/3 182/1/3
f 186/4/3 184/4/3 183/4/3
f 186/1/3 183/1/3 185/1/3
f 187/4/3 184/4/3 186/4/3
f 188/4/3 184/4/3 187/4/3
f 189/3/3 186/3/3 185/3/3
f 189/3/3 187/3/3 186/3/3
f 190/3/3 187/3/3 189/3/3
f 191/3/3 187/3/3 190/3/3
f 192/2/3 190/2/3 189/2/3
f 193/2/3 190/2/3 192/2/3
f 195/3/3 193/3/3 192/3/3
f 195/3/3 194/3/3 193/3/3
f 196/3/3 194/3/3 195/3/3
f 199/3/3 198/3/3 197/3/3
f 200/3/3 198/3/3 199/3/3
f 203/3/3 202/3/3 201/3/3
f 204/3/3 202/3/3 203/3/3
f 207/3/3 206/3/3 205/3/3
f 208/3/3 206/3/3 207/3/3
f 211/4/3 210/4/3 209/4/3
f 212/4/3 210/4/3 211/4/3
f 215/4/3 214/4/3 213/4/3
f 216/4/3 214/4/3 215/4/3
f 219/3/3 218/3/3 217/3/3
f 220/3/3 218/3/3 219/3/3
f 223/3/3 222/3/3 221/3/3
f 224/3/3 222/3/3 223/3/3
f 227/3/3 226/3/3 225/3/3
f 228/3/3 226/3/3 227/3/3
f 231/4/3 230/4/3 229/4/3
f 232/4/3 230/4/3 231/4/3
f 235/4/3 234/4/3 233/4/3
f 236/4/3 234/4/3 235/4/3
f 239/4/3 238/4/3 237/4/3
f 240/4/3 238/4/3 239/4/3
f 243/4/3 242/4/3 241/4/3
f 244/4/3 242/4/3 243/4/3
f 247/4/3 246/4/3 245/4/3
f 248/4/3 246/4/3 247/4/3
f 251/4/3 250/4/3 249/4/3
f 252/4/3 250/4/3 251/4/3
f 255/4/3 254/4/3 253/4/3
f 256/4/3 254/4/3 255/4/3
f 259/3/3 258/3/3 257/3/3
f 260/3/3 258/3/3 259/3/3
f 263/3/3 262/3/3 261/3/3
f 264/3/3 262/3/3 263/3/3
f 267/3/3 266/3/3 265/3/3
f 268/3/3 266/3/3 267/3/3
f 269/3/4 270/3/4 271/3/4
f 271/3/4 270/3/4 272/3/4
f 273/3/4 274/3/4 275/3/4
f 275/3/4 274/3/4 276/3/4
f 277/4/4 278/4/4 279/4/4
f 279/4/4 278/4/4 280/4/4
f 281/3/4 282/3/4 283/3/4
f 283/3/4 282/3/4 284/3/4
f 285/3/4 286/3/4 287/3/4
f 287/3/4 286/3/4 288/3/4
f 289/3/4 290/3/4 291/3/4
f 291/3/4 290/3/4 292/3/4
f 293/4/4 294/4/4 295/4/4
f 295/4/4 294/4/4 296/4/4
f 297/4/4 298/4/4 299/4/4
f 299/4/4 298/4/4 300/4/4
f 301/4/4 302/4/4 303/4/4
f 303/4/4 302/4/4 304/4/4
f 305/4/4 306/4/4 307/4/4
f 307/4/4 306/4/4 308/4/4
f 309/4/4 310/4/4 311/4/4
f 311/4/4 310/4/4 312/4/4
f 313/4/4 314/4/4 315/4/4
f 315/4/4 314/4/4 316/4/4
f 317/4/4 318/4/4 319/4/4
f 319/4/4 318/4/4 320/4/4
f 321/3/4 322/3/4 323/3/4
f 323/3/4 322/3/4 324/3/4
f 325/3/4 326/3/4 327/3/4
f 327/3/4 326/3/4 328/3/4
f 329/3/4 330/3/4 331/3/4
f 331/3/4 330/3/4 332/3/4
f 333/4/4 334/4/4 335/4/4
f 335/4/4 334/4/4 336/4/4
f 337/3/4 338/3/4 339/3/4
f 339/3/4 338/3/4 340/3/4
f 349/3/5 346/3/5 345/3/5
f 350/2/5 347/2/5 346/2/5
f 350/3/5 346/3/5 349/3/5
f 351/3/5 348/3/5 347/3/5
f 351/2/5 347/2/5 350/2/5
f 352/3/5 348/3/5 351/3/5
f 353/2/5 350/2/5 349/2/5
f 353/3/5 349/3/5 345/3/5
f 354/3/5 351/3/5 350/3/5
f 354/2/5 350/2/5 353/2/5
f 355/2/5 352/2/5 351/2/5
f 355/3/5 351/3/5 354/3/5
f 356/3/5 348/3/5 352/3/5
f 356/2/5 352/2/5 355/2/5
f 357/2/5 355/2/5 354/2/5
f 357/3/5 354/3/5 353/3/5
f 358/3/5 356/3/5 355/3/5
f 358/2/5 355/2/5 357/2/5
f 359/1/5 345/1/5 344/1/5
f 359/3/5 357/3/5 353/3/5
f 359/3/5 358/3/5 357/3/5
f 359/3/5 353/3/5 345/3/5
f 360/3/5 356/3/5 358/3/5
f 360/3/5 358/3/5 359/3/5
f 360/3/5 348/3/5 356/3/5
f 361/3/5 344/3/5 343/3/5
f 361/1/5 359/1/5 344/1/5
f 361/1/5 360/1/5 359/1/5
f 362/1/5 360/1/5 361/1/5
f 363/3/5 342/3/5 341/3/5
f 364/3/5 342/3/5 363/3/5
f 365/3/5 363/3/5 341/3/5
f 366/2/5 364/2/5 363/2/5
f 366/3/5 363/3/5 365/3/5
f 367/3/5 342/3/5 364/3/5
f 367/2/5 364/2/5 366/2/5
f 368/3/5 342/3/5 367/3/5
f 369/1/5 343/1/5 342/1/5
f 369/3/5 361/3/5 343/3/5
f 369/3/5 362/3/5 361/3/5
f 370/3/5 362/3/5 369/3/5
f 371/3/5 342/3/5 368/3/5
f 371/1/5 369/1/5 342/1/5
f 371/1/5 370/1/5 369/1/5
f 372/1/5 370/1/5 371/1/5
f 373/2/5 366/2/5 365/2/5
f 373/3/5 365/3/5 341/3/5
f 374/3/5 367/3/5 366/3/5
f 374/2/5 366/2/5 373/2/5
f 375/2/5 368/2/5 367/2/5
f 375/3/5 367/3/5 374/3/5
f 376/3/5 372/3/5 371/3/5
f 376/2/5 368/2/5 375/2/5
f 376/3/5 371/3/5 368/3/5
f 377/3/5 374/3/5 373/3/5
f 377/2/5 375/2/5 374/2/5
f 378/3/5 376/3/5 375/3/5
f 378/2/5 375/2/5 377/2/5
f 379/3/5 362/3/5 370/3/5
f 379/1/5 370/1/5 372/1/5
f 380/1/5 360/1/5 362/1/5
f 380/3/5 362/3/5 379/3/5
f 381/3/5 376/3/5 378/3/5
f 381/3/5 372/3/5 376/3/5
f 381/3/5 378/3/5 377/3/5
f 382/3/5 372/3/5 381/3/5
f 383/1/5 379/1/5 372/1/5
f 383/3/5 372/3/5 382/3/5
f 383/1/5 380/1/5 379/1/5
f 384/1/5 360/1/5 380/1/5
f 384/1/5 380/1/5 383/1/5
f 384/3/5 348/3/5 360/3/5
f 385/1/5 382/1/5 381/1/5
f 386/1/5 382/1/5 385/1/5
f 387/3/5 383/3/5 382/3/5
f 387/1/5 382/1/5 386/1/5
f 387/3/5 384/3/5 383/3/5
f 388/3/5 348/3/5 384/3/5
f 388/3/5 384/3/5 387/3/5
f 389/3/5 377/3/5 373/3/5
f 389/3/5 381/3/5 377/3/5
f 389/3/5 373/3/5 341/3/5
f 390/3/5 381/3/5 389/3/5
f 391/1/5 387/1/5 386/1/5
f 391/3/5 386/3/5 385/3/5
f 391/1/5 388/1/5 387/1/5
f 392/1/5 388/1/5 391/1/5
f 393/1/5 390/1/5 389/1/5
f 394/1/5 390/1/5 393/1/5
f 395/1/5 385/1/5 381/1/5
f 395/3/5 391/3/5 385/3/5
f 395/3/5 392/3/5 391/3/5
f 396/3/5 392/3/5 395/3/5
f 397/3/5 394/3/5 393/3/5
f 398/3/5 394/3/5 397/3/5
f 399/3/5 381/3/5 390/3/5
f 399/1/5 395/1/5 381/1/5
f 399/1/5 396/1/5 395/1/5
f 400/1/5 396/1/5 399/1/5
f 401/1/5 398/1/5 397/1/5
f 402/1/5 398/1/5 401/1/5
f 403/3/5 400/3/5 399/3/5
f 404/3/5 400/3/5 403/3/5
f 405/3/5 403/3/5 399/3/5
f 406/2/5 404/2/5 403/2/5
f 406/3/5 403/3/5 405/3/5
f 407/3/5 400/3/5 404/3/5
f 407/2/5 404/2/5 406/2/5
f 408/3/5 400/3/5 407/3/5
f 409/3/5 394/3/5 398/3/5
f 409/1/5 398/1/5 402/1/5
f 410/1/5 390/1/5 394/1/5
f 410/3/5 394/3/5 409/3/5
f 411/1/5 409/1/5 402/1/5
f 411/3/5 402/3/5 401/3/5
f 411/1/5 410/1/5 409/1/5
f 412/1/5 390/1/5 410/1/5
f 412/1/5 410/1/5 411/1/5
f 412/3/5 399/3/5 390/3/5
f 412/3/5 405/3/5 399/3/5
f 413/2/5 406/2/5 405/2/5
f 413/3/5 405/3/5 412/3/5
f 413/3/5 412/3/5 411/3/5
f 414/3/5 407/3/5 406/3/5
f 414/2/5 406/2/5 413/2/5
f 415/2/5 408/2/5 407/2/5
f 415/3/5 407/3/5 414/3/5
f 416/3/5 400/3/5 408/3/5
f 416/2/5 408/2/5 415/2/5
f 417/2/5 415/2/5 414/2/5
f 417/3/5 414/3/5 413/3/5
f 418/3/5 416/3/5 415/3/5
f 418/2/5 415/2/5 417/2/5
f 419/3/5 411/3/5 401/3/5
f 419/3/5 413/3/5 411/3/5
f 419/3/5 418/3/5 417/3/5
f 419/3/5 417/3/5 413/3/5
f 420/3/5 400/3/5 416/3/5
f 420/3/5 418/3/5 419/3/5
f 420/3/5 416/3/5 418/3/5
f 423/2/6 424/2/6 426/2/6
f 426/2/6 424/2/6 427/2/6
f 425/2/6 426/2/6 429/2/6
f 426/3/6 427/3/6 430/3/6
f 429/2/6 426/2/6 430/2/6
f 427/2/6 428/2/6 431/2/6
f 430/3/6 427/3/6 431/3/6
f 431/2/6 428/2/6 432/2/6
f 430/2/6 431/2/6 433/2/6
f 433/2/6 431/2/6 434/2/6
f 421/3/6 422/3/6 435/3/6
f 437/2/6 438/2/6 440/2/6
f 440/2/6 438/2/6 441/2/6
f 421/3/6 435/3/6 443/3/6
f 435/3/6 436/3/6 443/3/6
f 443/3/6 436/3/6 444/3/6
f 439/2/6 440/2/6 445/2/6
f 440/3/6 441/3/6 446/3/6
f 445/2/6 440/2/6 446/2/6
f 441/2/6 442/2/6 447/2/6
f 446/3/6 441/3/6 447/3/6
f 447/2/6 442/2/6 448/2/6
f 446/2/6 447/2/6 449/2/6
f 449/2/6 447/2/6 450/2/6
f 444/3/6 436/3/6 451/3/6
f 451/3/6 436/3/6 452/3/6
f 453/3/6 454/3/6 455/3/6
f 453/3/6 455/3/6 459/3/6
f 455/3/6 456/3/6 459/3/6
f 459/3/6 456/3/6 460/3/6
f 457/3/6 458/3/6 461/3/6
f 461/3/6 458/3/6 462/3/6
f 463/2/6 464/2/6 466/2/6
f 466/2/6 464/2/6 467/2/6
f 462/3/6 458/3/6 469/3/6
f 469/3/6 458/3/6 470/3/6
f 465/2/6 466/2/6 471/2/6
f 466/3/6 467/3/6 472/3/6
f 471/2/6 466/2/6 472/2/6
f 467/2/6 468/2/6 473/2/6
f 472/3/6 467/3/6 473/3/6
f 473/2/6 468/2/6 474/2/6
f 472/2/6 473/2/6 475/2/6
f 475/2/6 473/2/6 476/2/6
f 479/3/6 480/3/6 483/3/6
f 483/3/6 480/3/6 484/3/6
f 481/3/6 482/3/6 485/3/6
f 485/3/6 482/3/6 486/3/6
f 479/3/6 483/3/6 487/3/6
f 486/3/6 482/3/6 490/3/6
f 487/3/6 488/3/6 491/3/6
f 489/3/6 490/3/6 492/3/6
f 487/3/6 491/3/6 493/3/6
f 491/3/6 492/3/6 493/3/6
f 479/3/6 487/3/6 493/3/6
f 492/3/6 490/3/6 494/3/6
f 493/3/6 492/3/6 494/3/6
f 490/3/6 482/3/6 494/3/6
f 477/3/6 478/3/6 495/3/6
f 495/3/6 478/3/6 496/3/6
f 477/3/6 495/3/6 497/3/6
f 497/3/6 495/3/6 498/3/6
f 496/3/6 478/3/6 499/3/6
f 499/3/6 478/3/6 500/3/6
f 500/3/6 478/3/6 501/3/6
f 477/3/6 497/3/6 503/3/6
f 501/3/6 502/3/6 506/3/6
f 500/3/6 501/3/6 506/3/6
f 503/3/6 504/3/6 507/3/6
f 505/3/6 506/3/6 508/3/6
f 506/3/6 502/3/6 509/3/6
f 507/3/6 508/3/6 509/3/6
f 508/3/6 506/3/6 509/3/6
f 509/3/6 502/3/6 510/3/6
f 510/3/6 502/3/6 511/3/6
f 494/3/6 482/3/6 512/3/6
f 510/3/6 511/3/6 513/3/6
f 511/3/6 512/3/6 513/3/6
f 512/3/6 482/3/6 514/3/6
f 513/3/6 512/3/6 514/3/6
f 503/3/6 507/3/6 515/3/6
f 477/3/6 503/3/6 515/3/6
f 507/3/6 509/3/6 515/3/6
f 515/3/6 509/3/6 516/3/6
f 516/3/6 509/3/6 517/3/6
f 517/3/6 518/3/6 521/3/6
f 521/3/6 518/3/6 522/3/6
f 517/3/6 521/3/6 523/3/6
f 523/3/6 521/3/6 524/3/6
f 522/3/6 518/3/6 525/3/6
f 525/3/6 518/3/6 526/3/6
f 519/3/6 520/3/6 527/3/6
f 516/3/6 517/3/6 528/3/6
f 517/3/6 523/3/6 528/3/6
f 528/3/6 523/3/6 529/3/6
f 527/3/6 528/3/6 529/3/6
f 526/3/6 518/3/6 532/3/6
f 529/3/6 530/3/6 533/3/6
f 531/3/6 532/3/6 534/3/6
f 519/3/6 527/3/6 535/3/6
f 533/3/6 534/3/6 535/3/6
f 529/3/6 533/3/6 535/3/6
f 527/3/6 529/3/6 535/3/6
f 534/3/6 532/3/6 536/3/6
f 535/3/6 534/3/6 536/3/6
f 532/3/6 518/3/6 536/3/6
f 539/4/6 540/4/6 541/4/6
f 539/4/6 541/4/6 543/4/6
f 541/4/6 542/4/6 543/4/6
f 543/4/6 542/4/6 544/4/6
f 537/4/6 538/4/6 545/4/6
f 537/4/6 545/4/6 547/4/6
f 545/4/6 546/4/6 547/4/6
f 547/4/6 546/4/6 548/4/6
f 548/4/6 546/4/6 549/4/6
f 544/4/6 542/4/6 550/4/6
f 548/4/6 549/4/6 553/4/6
f 549/4/6 550/4/6 553/4/6
f 550/4/6 542/4/6 554/4/6
f 553/4/6 550/4/6 554/4/6
f 551/4/6 552/4/6 555/4/6
f 555/4/6 552/4/6 556/4/6
f 556/4/6 552/4/6 557/4/6
f 556/4/6 557/4/6 561/4/6
f 557/4/6 558/4/6 561/4/6
f 561/4/6 558/4/6 562/4/6
f 559/4/6 560/4/6 563/4/6
f 563/4/6 560/4/6 564/4/6
f 551/4/6 555/4/6 565/4/6
f 565/4/6 566/4/6 569/4/6
f 551/4/6 565/4/6 569/4/6
f 569/4/6 566/4/6 570/4/6
f 567/4/6 568/4/6 571/4/6
f 571/4/6 568/4/6 572/4/6
f 572/4/6 568/4/6 573/4/6
f 564/4/6 560/4/6 574/4/6
f 572/4/6 573/4/6 575/4/6
f 573/4/6 574/4/6 575/4/6
f 574/4/6 560/4/6 576/4/6
f 575/4/6 574/4/6 576/4/6
