# MagicaVoxel @ Ephtracy

# group
o Niveau 4

# material
mtllib niveau 4.mtl
usemtl palette

# normals
vn -1 0 0
vn 1 0 0
vn 0 0 1
vn 0 0 -1
vn 0 -1 0
vn 0 1 0

# texcoords
vt 0.00195312 0.5
vt 0.0566406 0.5
vt 0.0917969 0.5
vt 0.958984 0.5

# verts
v -1.6 0 1.6
v -1.6 0 0.8
v -1.6 0 0.5
v -1.6 0 -0.1
v -1.6 0 -0.4
v -1.6 0 -1.6
v -1.6 0.1 1.6
v -1.6 0.1 0.8
v -1.6 0.1 0.5
v -1.6 0.1 -0.1
v -1.6 0.1 -0.4
v -1.6 0.1 -1.6
v -1.6 0.2 0.8
v -1.6 0.2 0.5
v -1.6 0.2 -0.1
v -1.6 0.2 -0.4
v -0.8 0.1 0.5
v -0.8 0.1 0.3
v -0.8 0.2 0.5
v -0.8 0.2 0.3
v -0.7 0.1 1.2
v -0.7 0.1 0.8
v -0.7 0.2 1.2
v -0.7 0.2 0.8
v -0.2 0.1 1.2
v -0.2 0.1 0.7
v -0.2 0.2 1.2
v -0.2 0.2 0.7
v 0 0.1 -0.7
v 0 0.1 -1.6
v 0 0.2 -0.7
v 0 0.2 -1.6
v 0.3 0.1 1.4
v 0.3 0.1 1.2
v 0.3 0.2 1.4
v 0.3 0.2 1.2
v -0.5 0.1 1.2
v -0.5 0.1 0.3
v -0.5 0.2 1.2
v -0.5 0.2 0.3
v 0 0.1 1.1
v 0 0.1 0.9
v 0 0.2 1.1
v 0 0.2 0.9
v 0.3 0.1 -1
v 0.3 0.1 -1.6
v 0.3 0.2 -1
v 0.3 0.2 -1.6
v 0.5 0.1 -0.1
v 0.5 0.1 -0.4
v 0.5 0.2 -0.1
v 0.5 0.2 -0.4
v 0.6 0.1 1.4
v 0.6 0.1 1.1
v 0.6 0.2 1.4
v 0.6 0.2 1.1
v 1.3 0.1 -0.7
v 1.3 0.1 -1
v 1.3 0.2 -0.7
v 1.3 0.2 -1
v 1.6 0 1.6
v 1.6 0 0.9
v 1.6 0 0.7
v 1.6 0 -1.6
v 1.6 0.1 1.6
v 1.6 0.1 0.9
v 1.6 0.1 0.7
v 1.6 0.1 -1.6
v 1.6 0.2 0.9
v 1.6 0.2 0.7
v -1.6 0 1.6
v -1.6 0.1 1.6
v 1.6 0 1.6
v 1.6 0.1 1.6
v 0.3 0.1 1.4
v 0.3 0.2 1.4
v 0.6 0.1 1.4
v 0.6 0.2 1.4
v -0.7 0.1 1.2
v -0.7 0.2 1.2
v -0.5 0.1 1.2
v -0.5 0.2 1.2
v -0.2 0.1 1.2
v -0.2 0.2 1.2
v 0.3 0.1 1.2
v 0.3 0.2 1.2
v 0 0.1 0.9
v 0 0.2 0.9
v 1.6 0.1 0.9
v 1.6 0.2 0.9
v -1.6 0.1 0.8
v -1.6 0.2 0.8
v -0.7 0.1 0.8
v -0.7 0.2 0.8
v -1.6 0.1 -0.1
v -1.6 0.2 -0.1
v 0.5 0.1 -0.1
v 0.5 0.2 -0.1
v 0 0.1 -0.7
v 0 0.2 -0.7
v 1.3 0.1 -0.7
v 1.3 0.2 -0.7
v 0 0.1 1.1
v 0 0.2 1.1
v 0.6 0.1 1.1
v 0.6 0.2 1.1
v -0.2 0.1 0.7
v -0.2 0.2 0.7
v 1.6 0.1 0.7
v 1.6 0.2 0.7
v -1.6 0.1 0.5
v -1.6 0.2 0.5
v -0.8 0.1 0.5
v -0.8 0.2 0.5
v -0.8 0.1 0.3
v -0.8 0.2 0.3
v -0.5 0.1 0.3
v -0.5 0.2 0.3
v -1.6 0.1 -0.4
v -1.6 0.2 -0.4
v 0.5 0.1 -0.4
v 0.5 0.2 -0.4
v 0.3 0.1 -1
v 0.3 0.2 -1
v 1.3 0.1 -1
v 1.3 0.2 -1
v -1.6 0 -1.6
v -1.6 0.1 -1.6
v 0 0 -1.6
v 0 0.1 -1.6
v 0 0.2 -1.6
v 0.3 0 -1.6
v 0.3 0.1 -1.6
v 0.3 0.2 -1.6
v 1.6 0 -1.6
v 1.6 0.1 -1.6
v -1.6 0 1.6
v 1.6 0 1.6
v 0.3 0 1.4
v 0.6 0 1.4
v -0.7 0 1.2
v -0.5 0 1.2
v -0.2 0 1.2
v 0.3 0 1.2
v 0 0 1.1
v 0.6 0 1.1
v 0 0 0.9
v 1.6 0 0.9
v -1.6 0 0.8
v -0.7 0 0.8
v -0.2 0 0.7
v 1.6 0 0.7
v -1.6 0 0.5
v -0.8 0 0.5
v 1.1 0 0.5
v 1.4 0 0.5
v 1 0 0.4
v 1.1 0 0.4
v 1.4 0 0.4
v 1.5 0 0.4
v -0.8 0 0.3
v -0.5 0 0.3
v 1 0 0.1
v 1.1 0 0.1
v 1.4 0 0.1
v 1.5 0 0.1
v 1.1 0 0
v 1.4 0 0
v -1.6 0 -0.1
v 0.5 0 -0.1
v -1.6 0 -0.4
v 0.5 0 -0.4
v 0 0 -0.7
v 1.3 0 -0.7
v -0.9 0 -0.9
v -0.6 0 -0.9
v -1 0 -1
v -0.9 0 -1
v -0.6 0 -1
v -0.5 0 -1
v 0.3 0 -1
v 1.3 0 -1
v -1 0 -1.3
v -0.9 0 -1.3
v -0.6 0 -1.3
v -0.5 0 -1.3
v -0.9 0 -1.4
v -0.6 0 -1.4
v -1.6 0 -1.6
v 0 0 -1.6
v 0.3 0 -1.6
v 1.6 0 -1.6
v -1.6 0.1 1.6
v 1.6 0.1 1.6
v 0.3 0.1 1.4
v 0.6 0.1 1.4
v -0.7 0.1 1.2
v -0.5 0.1 1.2
v -0.2 0.1 1.2
v 0.3 0.1 1.2
v 0 0.1 1.1
v 0.6 0.1 1.1
v 0 0.1 0.9
v 1.6 0.1 0.9
v -1.6 0.1 0.8
v -0.7 0.1 0.8
v -0.2 0.1 0.7
v 1.6 0.1 0.7
v -1.6 0.1 0.5
v -0.8 0.1 0.5
v 1.1 0.1 0.5
v 1.4 0.1 0.5
v 1 0.1 0.4
v 1.1 0.1 0.4
v 1.4 0.1 0.4
v 1.5 0.1 0.4
v -0.8 0.1 0.3
v -0.5 0.1 0.3
v 1 0.1 0.1
v 1.1 0.1 0.1
v 1.4 0.1 0.1
v 1.5 0.1 0.1
v 1.1 0.1 0
v 1.4 0.1 0
v -1.6 0.1 -0.1
v 0.5 0.1 -0.1
v -1.6 0.1 -0.4
v 0.5 0.1 -0.4
v 0 0.1 -0.7
v 1.3 0.1 -0.7
v -0.9 0.1 -0.9
v -0.6 0.1 -0.9
v -1 0.1 -1
v -0.9 0.1 -1
v -0.6 0.1 -1
v -0.5 0.1 -1
v 0.3 0.1 -1
v 1.3 0.1 -1
v -1 0.1 -1.3
v -0.9 0.1 -1.3
v -0.6 0.1 -1.3
v -0.5 0.1 -1.3
v -0.9 0.1 -1.4
v -0.6 0.1 -1.4
v -1.6 0.1 -1.6
v 0 0.1 -1.6
v 0.3 0.1 -1.6
v 1.6 0.1 -1.6
v 0.3 0.2 1.4
v 0.6 0.2 1.4
v -0.7 0.2 1.2
v -0.5 0.2 1.2
v -0.2 0.2 1.2
v 0.3 0.2 1.2
v 0 0.2 1.1
v 0.6 0.2 1.1
v 0 0.2 0.9
v 1.6 0.2 0.9
v -1.6 0.2 0.8
v -0.7 0.2 0.8
v -0.2 0.2 0.7
v 1.6 0.2 0.7
v -1.6 0.2 0.5
v -0.8 0.2 0.5
v -0.8 0.2 0.3
v -0.5 0.2 0.3
v -1.6 0.2 -0.1
v 0.5 0.2 -0.1
v -1.6 0.2 -0.4
v 0.5 0.2 -0.4
v 0 0.2 -0.7
v 1.3 0.2 -0.7
v 0.3 0.2 -1
v 1.3 0.2 -1
v 0 0.2 -1.6
v 0.3 0.2 -1.6

# faces
f 7/3/1 2/3/1 1/3/1
f 8/1/1 3/1/1 2/1/1
f 8/3/1 2/3/1 7/3/1
f 9/3/1 4/3/1 3/3/1
f 9/1/1 3/1/1 8/1/1
f 10/1/1 5/1/1 4/1/1
f 10/3/1 4/3/1 9/3/1
f 11/3/1 6/3/1 5/3/1
f 11/1/1 5/1/1 10/1/1
f 12/3/1 6/3/1 11/3/1
f 13/4/1 9/4/1 8/4/1
f 14/4/1 9/4/1 13/4/1
f 15/4/1 11/4/1 10/4/1
f 16/4/1 11/4/1 15/4/1
f 19/4/1 18/4/1 17/4/1
f 20/4/1 18/4/1 19/4/1
f 23/4/1 22/4/1 21/4/1
f 24/4/1 22/4/1 23/4/1
f 27/4/1 26/4/1 25/4/1
f 28/4/1 26/4/1 27/4/1
f 31/4/1 30/4/1 29/4/1
f 32/4/1 30/4/1 31/4/1
f 35/4/1 34/4/1 33/4/1
f 36/4/1 34/4/1 35/4/1
f 37/4/2 38/4/2 39/4/2
f 39/4/2 38/4/2 40/4/2
f 41/4/2 42/4/2 43/4/2
f 43/4/2 42/4/2 44/4/2
f 45/4/2 46/4/2 47/4/2
f 47/4/2 46/4/2 48/4/2
f 49/4/2 50/4/2 51/4/2
f 51/4/2 50/4/2 52/4/2
f 53/4/2 54/4/2 55/4/2
f 55/4/2 54/4/2 56/4/2
f 57/4/2 58/4/2 59/4/2
f 59/4/2 58/4/2 60/4/2
f 61/3/2 62/3/2 65/3/2
f 62/1/2 63/1/2 66/1/2
f 65/3/2 62/3/2 66/3/2
f 63/3/2 64/3/2 67/3/2
f 66/1/2 63/1/2 67/1/2
f 67/3/2 64/3/2 68/3/2
f 66/4/2 67/4/2 69/4/2
f 69/4/2 67/4/2 70/4/2
f 73/3/3 72/3/3 71/3/3
f 74/3/3 72/3/3 73/3/3
f 77/4/3 76/4/3 75/4/3
f 78/4/3 76/4/3 77/4/3
f 81/4/3 80/4/3 79/4/3
f 82/4/3 80/4/3 81/4/3
f 85/4/3 84/4/3 83/4/3
f 86/4/3 84/4/3 85/4/3
f 89/4/3 88/4/3 87/4/3
f 90/4/3 88/4/3 89/4/3
f 93/4/3 92/4/3 91/4/3
f 94/4/3 92/4/3 93/4/3
f 97/4/3 96/4/3 95/4/3
f 98/4/3 96/4/3 97/4/3
f 101/4/3 100/4/3 99/4/3
f 102/4/3 100/4/3 101/4/3
f 103/4/4 104/4/4 105/4/4
f 105/4/4 104/4/4 106/4/4
f 107/4/4 108/4/4 109/4/4
f 109/4/4 108/4/4 110/4/4
f 111/4/4 112/4/4 113/4/4
f 113/4/4 112/4/4 114/4/4
f 115/4/4 116/4/4 117/4/4
f 117/4/4 116/4/4 118/4/4
f 119/4/4 120/4/4 121/4/4
f 121/4/4 120/4/4 122/4/4
f 123/4/4 124/4/4 125/4/4
f 125/4/4 124/4/4 126/4/4
f 127/3/4 128/3/4 129/3/4
f 129/3/4 128/3/4 130/3/4
f 129/1/4 130/1/4 132/1/4
f 130/4/4 131/4/4 133/4/4
f 132/1/4 130/1/4 133/1/4
f 133/4/4 131/4/4 134/4/4
f 132/3/4 133/3/4 135/3/4
f 135/3/4 133/3/4 136/3/4
f 139/3/5 138/3/5 137/3/5
f 140/3/5 138/3/5 139/3/5
f 141/3/5 139/3/5 137/3/5
f 142/3/5 139/3/5 141/3/5
f 143/3/5 139/3/5 142/3/5
f 144/1/5 140/1/5 139/1/5
f 144/3/5 139/3/5 143/3/5
f 145/1/5 144/1/5 143/1/5
f 146/3/5 138/3/5 140/3/5
f 146/1/5 144/1/5 145/1/5
f 146/1/5 140/1/5 144/1/5
f 147/1/5 145/1/5 143/1/5
f 147/3/5 146/3/5 145/3/5
f 148/3/5 138/3/5 146/3/5
f 148/3/5 146/3/5 147/3/5
f 149/3/5 141/3/5 137/3/5
f 150/1/5 142/1/5 141/1/5
f 150/3/5 141/3/5 149/3/5
f 151/1/5 147/1/5 143/1/5
f 151/3/5 143/3/5 142/3/5
f 151/1/5 148/1/5 147/1/5
f 152/1/5 148/1/5 151/1/5
f 153/1/5 150/1/5 149/1/5
f 154/1/5 150/1/5 153/1/5
f 155/3/5 152/3/5 151/3/5
f 156/3/5 152/3/5 155/3/5
f 157/3/5 155/3/5 151/3/5
f 158/2/5 156/2/5 155/2/5
f 158/3/5 155/3/5 157/3/5
f 159/3/5 152/3/5 156/3/5
f 159/2/5 156/2/5 158/2/5
f 160/3/5 152/3/5 159/3/5
f 161/1/5 150/1/5 154/1/5
f 161/3/5 154/3/5 153/3/5
f 162/1/5 142/1/5 150/1/5
f 162/1/5 150/1/5 161/1/5
f 162/3/5 151/3/5 142/3/5
f 162/3/5 157/3/5 151/3/5
f 163/2/5 158/2/5 157/2/5
f 163/3/5 157/3/5 162/3/5
f 163/3/5 162/3/5 161/3/5
f 164/3/5 159/3/5 158/3/5
f 164/2/5 158/2/5 163/2/5
f 165/2/5 160/2/5 159/2/5
f 165/3/5 159/3/5 164/3/5
f 166/3/5 152/3/5 160/3/5
f 166/2/5 160/2/5 165/2/5
f 167/2/5 165/2/5 164/2/5
f 167/3/5 164/3/5 163/3/5
f 168/3/5 166/3/5 165/3/5
f 168/2/5 165/2/5 167/2/5
f 169/3/5 161/3/5 153/3/5
f 169/3/5 163/3/5 161/3/5
f 169/3/5 168/3/5 167/3/5
f 169/3/5 167/3/5 163/3/5
f 170/3/5 168/3/5 169/3/5
f 171/1/5 170/1/5 169/1/5
f 172/3/5 168/3/5 170/3/5
f 172/1/5 170/1/5 171/1/5
f 173/3/5 172/3/5 171/3/5
f 174/3/5 168/3/5 172/3/5
f 174/3/5 172/3/5 173/3/5
f 175/3/5 173/3/5 171/3/5
f 176/3/5 173/3/5 175/3/5
f 177/3/5 175/3/5 171/3/5
f 178/2/5 176/2/5 175/2/5
f 178/3/5 175/3/5 177/3/5
f 179/3/5 173/3/5 176/3/5
f 179/2/5 176/2/5 178/2/5
f 180/3/5 173/3/5 179/3/5
f 181/1/5 174/1/5 173/1/5
f 182/3/5 168/3/5 174/3/5
f 182/1/5 174/1/5 181/1/5
f 183/2/5 178/2/5 177/2/5
f 183/3/5 177/3/5 171/3/5
f 184/3/5 179/3/5 178/3/5
f 184/2/5 178/2/5 183/2/5
f 185/2/5 180/2/5 179/2/5
f 185/3/5 179/3/5 184/3/5
f 186/3/5 173/3/5 180/3/5
f 186/2/5 180/2/5 185/2/5
f 187/2/5 185/2/5 184/2/5
f 187/3/5 184/3/5 183/3/5
f 188/3/5 186/3/5 185/3/5
f 188/2/5 185/2/5 187/2/5
f 189/3/5 183/3/5 171/3/5
f 189/3/5 187/3/5 183/3/5
f 189/3/5 188/3/5 187/3/5
f 190/1/5 181/1/5 173/1/5
f 190/3/5 188/3/5 189/3/5
f 190/3/5 173/3/5 186/3/5
f 190/3/5 186/3/5 188/3/5
f 191/3/5 182/3/5 181/3/5
f 191/1/5 181/1/5 190/1/5
f 192/3/5 166/3/5 168/3/5
f 192/3/5 182/3/5 191/3/5
f 192/3/5 152/3/5 166/3/5
f 192/3/5 168/3/5 182/3/5
f 193/3/6 194/3/6 195/3/6
f 195/3/6 194/3/6 196/3/6
f 193/3/6 195/3/6 197/3/6
f 197/3/6 195/3/6 198/3/6
f 198/3/6 195/3/6 199/3/6
f 199/3/6 195/3/6 200/3/6
f 196/3/6 194/3/6 202/3/6
f 201/3/6 202/3/6 203/3/6
f 202/3/6 194/3/6 204/3/6
f 203/3/6 202/3/6 204/3/6
f 193/3/6 197/3/6 205/3/6
f 205/3/6 197/3/6 206/3/6
f 198/3/6 199/3/6 207/3/6
f 207/3/6 208/3/6 211/3/6
f 211/3/6 208/3/6 212/3/6
f 207/3/6 211/3/6 213/3/6
f 211/2/6 212/2/6 214/2/6
f 213/3/6 211/3/6 214/3/6
f 212/3/6 208/3/6 215/3/6
f 214/2/6 212/2/6 215/2/6
f 215/3/6 208/3/6 216/3/6
f 209/3/6 210/3/6 217/3/6
f 198/3/6 207/3/6 218/3/6
f 207/3/6 213/3/6 218/3/6
f 213/2/6 214/2/6 219/2/6
f 217/3/6 218/3/6 219/3/6
f 218/3/6 213/3/6 219/3/6
f 214/3/6 215/3/6 220/3/6
f 219/2/6 214/2/6 220/2/6
f 215/2/6 216/2/6 221/2/6
f 220/3/6 215/3/6 221/3/6
f 216/3/6 208/3/6 222/3/6
f 221/2/6 216/2/6 222/2/6
f 220/2/6 221/2/6 223/2/6
f 219/3/6 220/3/6 223/3/6
f 221/3/6 222/3/6 224/3/6
f 223/2/6 221/2/6 224/2/6
f 209/3/6 217/3/6 225/3/6
f 219/3/6 223/3/6 225/3/6
f 223/3/6 224/3/6 225/3/6
f 217/3/6 219/3/6 225/3/6
f 225/3/6 224/3/6 226/3/6
f 226/3/6 224/3/6 228/3/6
f 227/3/6 228/3/6 229/3/6
f 228/3/6 224/3/6 230/3/6
f 229/3/6 228/3/6 230/3/6
f 227/3/6 229/3/6 231/3/6
f 231/3/6 229/3/6 232/3/6
f 227/3/6 231/3/6 233/3/6
f 231/2/6 232/2/6 234/2/6
f 233/3/6 231/3/6 234/3/6
f 232/3/6 229/3/6 235/3/6
f 234/2/6 232/2/6 235/2/6
f 235/3/6 229/3/6 236/3/6
f 230/3/6 224/3/6 238/3/6
f 233/2/6 234/2/6 239/2/6
f 227/3/6 233/3/6 239/3/6
f 234/3/6 235/3/6 240/3/6
f 239/2/6 234/2/6 240/2/6
f 235/2/6 236/2/6 241/2/6
f 240/3/6 235/3/6 241/3/6
f 236/3/6 229/3/6 242/3/6
f 241/2/6 236/2/6 242/2/6
f 240/2/6 241/2/6 243/2/6
f 239/3/6 240/3/6 243/3/6
f 241/3/6 242/3/6 244/3/6
f 243/2/6 241/2/6 244/2/6
f 227/3/6 239/3/6 245/3/6
f 239/3/6 243/3/6 245/3/6
f 243/3/6 244/3/6 245/3/6
f 242/3/6 229/3/6 246/3/6
f 245/3/6 244/3/6 246/3/6
f 244/3/6 242/3/6 246/3/6
f 237/3/6 238/3/6 247/3/6
f 224/3/6 222/3/6 248/3/6
f 247/3/6 238/3/6 248/3/6
f 222/3/6 208/3/6 248/3/6
f 238/3/6 224/3/6 248/3/6
f 249/4/6 250/4/6 254/4/6
f 253/4/6 254/4/6 255/4/6
f 254/4/6 250/4/6 256/4/6
f 255/4/6 254/4/6 256/4/6
f 253/4/6 255/4/6 257/4/6
f 251/4/6 252/4/6 260/4/6
f 257/4/6 258/4/6 261/4/6
f 253/4/6 257/4/6 261/4/6
f 261/4/6 258/4/6 262/4/6
f 259/4/6 260/4/6 263/4/6
f 263/4/6 260/4/6 264/4/6
f 264/4/6 260/4/6 265/4/6
f 260/4/6 252/4/6 266/4/6
f 265/4/6 260/4/6 266/4/6
f 267/4/6 268/4/6 269/4/6
f 269/4/6 268/4/6 270/4/6
f 271/4/6 272/4/6 273/4/6
f 273/4/6 272/4/6 274/4/6
f 271/4/6 273/4/6 275/4/6
f 275/4/6 273/4/6 276/4/6
