# MagicaVoxel @ Ephtracy

# group
o Niveau 1 -

# material
mtllib niveau 1.mtl
usemtl palette

# normals
vn -1 0 0
vn 1 0 0
vn 0 0 1
vn 0 0 -1
vn 0 -1 0
vn 0 1 0

# texcoords
vt 0.00195312 0.5
vt 0.0605469 0.5
vt 0.0917969 0.5

# verts
v -1 0.2 1.6
v -1 0.2 -1.6
v -1 0.4 1.6
v -1 0.4 -1.6
v -0.5 0.4 0.1
v -0.5 0.4 -1
v -0.5 0.6 0.1
v -0.5 0.6 -1
v -0.4 0.3 0.8
v -0.4 0.3 0.7
v -0.4 0.3 0.5
v -0.4 0.3 0.4
v -0.4 0.4 0.8
v -0.4 0.4 0.7
v -0.4 0.4 0.5
v -0.4 0.4 0.4
v -0.3 0.3 0.7
v -0.3 0.3 0.5
v -0.3 0.4 0.7
v -0.3 0.4 0.5
v -0.3 0.4 -0.1
v -0.3 0.4 -1
v -0.3 0.6 -0.1
v -0.3 0.6 -1
v -0.2 0.4 1.6
v -0.2 0.4 0.9
v -0.2 0.6 1.6
v -0.2 0.6 0.9
v 0 0.4 1.6
v 0 0.4 1.1
v 0 0.6 1.6
v 0 0.6 1.1
v 0.2 0.4 0
v 0.2 0.4 -0.1
v 0.2 0.6 0
v 0.2 0.6 -0.1
v 0.5 0.4 0.9
v 0.5 0.4 0.6
v 0.5 0.6 0.9
v 0.5 0.6 0.6
v 0.6 0.4 0.1
v 0.6 0.4 -0.2
v 0.6 0.6 0.1
v 0.6 0.6 -0.2
v 0.7 0.4 1.1
v 0.7 0.4 0.6
v 0.7 0.6 1.1
v 0.7 0.6 0.6
v 1.1 0.3 -1.1
v 1.1 0.3 -1.2
v 1.1 0.3 -1.4
v 1.1 0.3 -1.5
v 1.1 0.4 -1.1
v 1.1 0.4 -1.2
v 1.1 0.4 -1.4
v 1.1 0.4 -1.5
v 1.2 0.3 -1.2
v 1.2 0.3 -1.4
v 1.2 0.4 -1.2
v 1.2 0.4 -1.4
v 1.4 0.4 0.1
v 1.4 0.4 -1
v 1.4 0.6 0.1
v 1.4 0.6 -1
v 1.6 0.3 0
v 1.6 0.3 -0.9
v 1.6 0.6 0
v 1.6 0.6 -0.9
v 1.9 0.3 1.3
v 1.9 0.3 1.2
v 1.9 0.3 1
v 1.9 0.3 0.9
v 1.9 0.4 1.3
v 1.9 0.4 1.2
v 1.9 0.4 1
v 1.9 0.4 0.9
v 2 0.3 1.2
v 2 0.3 1
v 2 0.4 1.2
v 2 0.4 1
v -0.7 0.3 0.7
v -0.7 0.3 0.5
v -0.7 0.4 0.7
v -0.7 0.4 0.5
v -0.6 0.3 0.8
v -0.6 0.3 0.7
v -0.6 0.3 0.5
v -0.6 0.3 0.4
v -0.6 0.4 0.8
v -0.6 0.4 0.7
v -0.6 0.4 0.5
v -0.6 0.4 0.4
v -0.4 0.4 0
v -0.4 0.4 -1
v -0.4 0.6 0
v -0.4 0.6 -1
v -0.2 0.4 -0.2
v -0.2 0.4 -1
v -0.2 0.6 -0.2
v -0.2 0.6 -1
v -0.1 0.4 1.6
v -0.1 0.4 1
v -0.1 0.6 1.6
v -0.1 0.6 1
v 0.1 0.4 1.6
v 0.1 0.4 1.2
v 0.1 0.6 1.6
v 0.1 0.6 1.2
v 0.3 0.4 0.1
v 0.3 0.4 -0.2
v 0.3 0.6 0.1
v 0.3 0.6 -0.2
v 0.6 0.4 1
v 0.6 0.4 0.6
v 0.6 0.6 1
v 0.6 0.6 0.6
v 0.8 0.3 -1.2
v 0.8 0.3 -1.4
v 0.8 0.4 1.2
v 0.8 0.4 0.6
v 0.8 0.4 -1.2
v 0.8 0.4 -1.4
v 0.8 0.6 1.2
v 0.8 0.6 0.6
v 0.9 0.3 -1.1
v 0.9 0.3 -1.2
v 0.9 0.3 -1.4
v 0.9 0.3 -1.5
v 0.9 0.4 -1.1
v 0.9 0.4 -1.2
v 0.9 0.4 -1.4
v 0.9 0.4 -1.5
v 1.1 0.4 0.1
v 1.1 0.4 -0.2
v 1.1 0.6 0.1
v 1.1 0.6 -0.2
v 1.5 0.3 0
v 1.5 0.3 -0.9
v 1.5 0.6 0
v 1.5 0.6 -0.9
v 1.6 0.3 1.2
v 1.6 0.3 1
v 1.6 0.4 1.2
v 1.6 0.4 1
v 1.7 0.3 1.3
v 1.7 0.3 1.2
v 1.7 0.3 1
v 1.7 0.3 0.9
v 1.7 0.4 1.3
v 1.7 0.4 1.2
v 1.7 0.4 1
v 1.7 0.4 0.9
v 1.7 0.4 0.1
v 1.7 0.4 -1
v 1.7 0.6 0.1
v 1.7 0.6 -1
v 2.2 0.2 1.6
v 2.2 0.2 -1.6
v 2.2 0.4 1.6
v 2.2 0.4 -1.6
v -1 0.2 1.6
v -1 0.4 1.6
v -0.2 0.2 1.6
v -0.2 0.4 1.6
v -0.2 0.6 1.6
v -0.1 0.2 1.6
v -0.1 0.4 1.6
v -0.1 0.6 1.6
v 0 0.2 1.6
v 0 0.4 1.6
v 0 0.6 1.6
v 0.1 0.2 1.6
v 0.1 0.4 1.6
v 0.1 0.6 1.6
v 2.2 0.2 1.6
v 2.2 0.4 1.6
v 0.1 0.4 1.2
v 0.1 0.6 1.2
v 0.8 0.4 1.2
v 0.8 0.6 1.2
v -0.1 0.4 1
v -0.1 0.6 1
v 0.6 0.4 1
v 0.6 0.6 1
v 1.6 0.3 1
v 1.6 0.4 1
v 1.7 0.3 1
v 1.7 0.4 1
v 1.9 0.3 1
v 1.9 0.4 1
v 2 0.3 1
v 2 0.4 1
v 1.7 0.3 0.9
v 1.7 0.4 0.9
v 1.9 0.3 0.9
v 1.9 0.4 0.9
v -0.7 0.3 0.5
v -0.7 0.4 0.5
v -0.6 0.3 0.5
v -0.6 0.4 0.5
v -0.4 0.3 0.5
v -0.4 0.4 0.5
v -0.3 0.3 0.5
v -0.3 0.4 0.5
v -0.6 0.3 0.4
v -0.6 0.4 0.4
v -0.4 0.3 0.4
v -0.4 0.4 0.4
v -0.5 0.4 0.1
v -0.5 0.6 0.1
v 0.3 0.4 0.1
v 0.3 0.6 0.1
v 0.6 0.4 0.1
v 0.6 0.6 0.1
v 1.1 0.4 0.1
v 1.1 0.6 0.1
v 1.4 0.4 0.1
v 1.4 0.6 0.1
v 1.7 0.4 0.1
v 1.7 0.6 0.1
v -0.3 0.4 -0.1
v -0.3 0.6 -0.1
v 0.2 0.4 -0.1
v 0.2 0.6 -0.1
v 1.5 0.3 -0.9
v 1.5 0.6 -0.9
v 1.6 0.3 -0.9
v 1.6 0.6 -0.9
v 0.8 0.3 -1.4
v 0.8 0.4 -1.4
v 0.9 0.3 -1.4
v 0.9 0.4 -1.4
v 1.1 0.3 -1.4
v 1.1 0.4 -1.4
v 1.2 0.3 -1.4
v 1.2 0.4 -1.4
v 0.9 0.3 -1.5
v 0.9 0.4 -1.5
v 1.1 0.3 -1.5
v 1.1 0.4 -1.5
v 1.7 0.3 1.3
v 1.7 0.4 1.3
v 1.9 0.3 1.3
v 1.9 0.4 1.3
v 1.6 0.3 1.2
v 1.6 0.4 1.2
v 1.7 0.3 1.2
v 1.7 0.4 1.2
v 1.9 0.3 1.2
v 1.9 0.4 1.2
v 2 0.3 1.2
v 2 0.4 1.2
v 0 0.4 1.1
v 0 0.6 1.1
v 0.7 0.4 1.1
v 0.7 0.6 1.1
v -0.2 0.4 0.9
v -0.2 0.6 0.9
v 0.5 0.4 0.9
v 0.5 0.6 0.9
v -0.6 0.3 0.8
v -0.6 0.4 0.8
v -0.4 0.3 0.8
v -0.4 0.4 0.8
v -0.7 0.3 0.7
v -0.7 0.4 0.7
v -0.6 0.3 0.7
v -0.6 0.4 0.7
v -0.4 0.3 0.7
v -0.4 0.4 0.7
v -0.3 0.3 0.7
v -0.3 0.4 0.7
v 0.5 0.4 0.6
v 0.5 0.6 0.6
v 0.6 0.4 0.6
v 0.6 0.6 0.6
v 0.7 0.4 0.6
v 0.7 0.6 0.6
v 0.8 0.4 0.6
v 0.8 0.6 0.6
v -0.4 0.4 0
v -0.4 0.6 0
v 0.2 0.4 0
v 0.2 0.6 0
v 1.5 0.3 0
v 1.5 0.6 0
v 1.6 0.3 0
v 1.6 0.6 0
v -0.2 0.4 -0.2
v -0.2 0.6 -0.2
v 0.3 0.4 -0.2
v 0.3 0.6 -0.2
v 0.6 0.4 -0.2
v 0.6 0.6 -0.2
v 1.1 0.4 -0.2
v 1.1 0.6 -0.2
v -0.5 0.4 -1
v -0.5 0.6 -1
v -0.4 0.4 -1
v -0.4 0.6 -1
v -0.3 0.4 -1
v -0.3 0.6 -1
v -0.2 0.4 -1
v -0.2 0.6 -1
v 1.4 0.4 -1
v 1.4 0.6 -1
v 1.7 0.4 -1
v 1.7 0.6 -1
v 0.9 0.3 -1.1
v 0.9 0.4 -1.1
v 1.1 0.3 -1.1
v 1.1 0.4 -1.1
v 0.8 0.3 -1.2
v 0.8 0.4 -1.2
v 0.9 0.3 -1.2
v 0.9 0.4 -1.2
v 1.1 0.3 -1.2
v 1.1 0.4 -1.2
v 1.2 0.3 -1.2
v 1.2 0.4 -1.2
v -1 0.2 -1.6
v -1 0.4 -1.6
v 2.2 0.2 -1.6
v 2.2 0.4 -1.6
v -1 0.2 1.6
v -0.2 0.2 1.6
v -0.1 0.2 1.6
v 0 0.2 1.6
v 0.1 0.2 1.6
v 2.2 0.2 1.6
v 1.7 0.2 1.3
v 1.9 0.2 1.3
v 0.1 0.2 1.2
v 0.8 0.2 1.2
v 1.6 0.2 1.2
v 1.7 0.2 1.2
v 1.9 0.2 1.2
v 2 0.2 1.2
v 0 0.2 1.1
v 0.7 0.2 1.1
v -0.1 0.2 1
v 0.6 0.2 1
v 1.6 0.2 1
v 1.7 0.2 1
v 1.9 0.2 1
v 2 0.2 1
v -0.2 0.2 0.9
v 0.5 0.2 0.9
v 1.7 0.2 0.9
v 1.9 0.2 0.9
v -0.6 0.2 0.8
v -0.4 0.2 0.8
v -0.7 0.2 0.7
v -0.6 0.2 0.7
v -0.4 0.2 0.7
v -0.3 0.2 0.7
v 0.5 0.2 0.6
v 0.6 0.2 0.6
v 0.7 0.2 0.6
v 0.8 0.2 0.6
v -0.7 0.2 0.5
v -0.6 0.2 0.5
v -0.4 0.2 0.5
v -0.3 0.2 0.5
v -0.6 0.2 0.4
v -0.4 0.2 0.4
v -0.5 0.2 0.1
v 0.3 0.2 0.1
v 0.6 0.2 0.1
v 1.1 0.2 0.1
v 1.4 0.2 0.1
v 1.7 0.2 0.1
v -0.4 0.2 0
v 0.2 0.2 0
v 1.5 0.2 0
v 1.6 0.2 0
v -0.3 0.2 -0.1
v 0.2 0.2 -0.1
v -0.2 0.2 -0.2
v 0.3 0.2 -0.2
v 0.6 0.2 -0.2
v 1.1 0.2 -0.2
v 1.5 0.2 -0.9
v 1.6 0.2 -0.9
v -0.5 0.2 -1
v -0.4 0.2 -1
v -0.3 0.2 -1
v -0.2 0.2 -1
v 1.4 0.2 -1
v 1.7 0.2 -1
v 0.9 0.2 -1.1
v 1.1 0.2 -1.1
v 0.8 0.2 -1.2
v 0.9 0.2 -1.2
v 1.1 0.2 -1.2
v 1.2 0.2 -1.2
v 0.8 0.2 -1.4
v 0.9 0.2 -1.4
v 1.1 0.2 -1.4
v 1.2 0.2 -1.4
v 0.9 0.2 -1.5
v 1.1 0.2 -1.5
v -1 0.2 -1.6
v 2.2 0.2 -1.6
v 1.7 0.3 1.3
v 1.9 0.3 1.3
v 1.6 0.3 1.2
v 1.7 0.3 1.2
v 1.9 0.3 1.2
v 2 0.3 1.2
v 1.6 0.3 1
v 1.7 0.3 1
v 1.9 0.3 1
v 2 0.3 1
v 1.7 0.3 0.9
v 1.9 0.3 0.9
v -0.6 0.3 0.8
v -0.4 0.3 0.8
v -0.7 0.3 0.7
v -0.6 0.3 0.7
v -0.4 0.3 0.7
v -0.3 0.3 0.7
v -0.7 0.3 0.5
v -0.6 0.3 0.5
v -0.4 0.3 0.5
v -0.3 0.3 0.5
v -0.6 0.3 0.4
v -0.4 0.3 0.4
v 1.5 0.3 0
v 1.6 0.3 0
v 1.5 0.3 -0.9
v 1.6 0.3 -0.9
v 0.9 0.3 -1.1
v 1.1 0.3 -1.1
v 0.8 0.3 -1.2
v 0.9 0.3 -1.2
v 1.1 0.3 -1.2
v 1.2 0.3 -1.2
v 0.8 0.3 -1.4
v 0.9 0.3 -1.4
v 1.1 0.3 -1.4
v 1.2 0.3 -1.4
v 0.9 0.3 -1.5
v 1.1 0.3 -1.5
v -1 0.4 1.6
v -0.2 0.4 1.6
v -0.1 0.4 1.6
v 0 0.4 1.6
v 0.1 0.4 1.6
v 2.2 0.4 1.6
v 1.7 0.4 1.3
v 1.9 0.4 1.3
v 0.1 0.4 1.2
v 0.8 0.4 1.2
v 1.6 0.4 1.2
v 1.7 0.4 1.2
v 1.9 0.4 1.2
v 2 0.4 1.2
v 0 0.4 1.1
v 0.7 0.4 1.1
v -0.1 0.4 1
v 0.6 0.4 1
v 1.6 0.4 1
v 1.7 0.4 1
v 1.9 0.4 1
v 2 0.4 1
v -0.2 0.4 0.9
v 0.5 0.4 0.9
v 1.7 0.4 0.9
v 1.9 0.4 0.9
v -0.6 0.4 0.8
v -0.4 0.4 0.8
v -0.7 0.4 0.7
v -0.6 0.4 0.7
v -0.4 0.4 0.7
v -0.3 0.4 0.7
v 0.5 0.4 0.6
v 0.6 0.4 0.6
v 0.7 0.4 0.6
v 0.8 0.4 0.6
v -0.7 0.4 0.5
v -0.6 0.4 0.5
v -0.4 0.4 0.5
v -0.3 0.4 0.5
v -0.6 0.4 0.4
v -0.4 0.4 0.4
v -0.5 0.4 0.1
v 0.3 0.4 0.1
v 0.6 0.4 0.1
v 1.1 0.4 0.1
v 1.4 0.4 0.1
v 1.7 0.4 0.1
v -0.4 0.4 0
v 0.2 0.4 0
v -0.3 0.4 -0.1
v 0.2 0.4 -0.1
v -0.2 0.4 -0.2
v 0.3 0.4 -0.2
v 0.6 0.4 -0.2
v 1.1 0.4 -0.2
v -0.5 0.4 -1
v -0.4 0.4 -1
v -0.3 0.4 -1
v -0.2 0.4 -1
v 1.4 0.4 -1
v 1.7 0.4 -1
v 0.9 0.4 -1.1
v 1.1 0.4 -1.1
v 0.8 0.4 -1.2
v 0.9 0.4 -1.2
v 1.1 0.4 -1.2
v 1.2 0.4 -1.2
v 0.8 0.4 -1.4
v 0.9 0.4 -1.4
v 1.1 0.4 -1.4
v 1.2 0.4 -1.4
v 0.9 0.4 -1.5
v 1.1 0.4 -1.5
v -1 0.4 -1.6
v 2.2 0.4 -1.6
v -0.2 0.6 1.6
v -0.1 0.6 1.6
v 0 0.6 1.6
v 0.1 0.6 1.6
v 0.1 0.6 1.2
v 0.8 0.6 1.2
v 0 0.6 1.1
v 0.7 0.6 1.1
v -0.1 0.6 1
v 0.6 0.6 1
v -0.2 0.6 0.9
v 0.5 0.6 0.9
v 0.5 0.6 0.6
v 0.6 0.6 0.6
v 0.7 0.6 0.6
v 0.8 0.6 0.6
v -0.5 0.6 0.1
v 0.3 0.6 0.1
v 0.6 0.6 0.1
v 1.1 0.6 0.1
v 1.4 0.6 0.1
v 1.7 0.6 0.1
v -0.4 0.6 0
v 0.2 0.6 0
v 1.5 0.6 0
v 1.6 0.6 0
v -0.3 0.6 -0.1
v 0.2 0.6 -0.1
v -0.2 0.6 -0.2
v 0.3 0.6 -0.2
v 0.6 0.6 -0.2
v 1.1 0.6 -0.2
v 1.5 0.6 -0.9
v 1.6 0.6 -0.9
v -0.5 0.6 -1
v -0.4 0.6 -1
v -0.3 0.6 -1
v -0.2 0.6 -1
v 1.4 0.6 -1
v 1.7 0.6 -1

# faces
f 3/3/1 2/3/1 1/3/1
f 4/3/1 2/3/1 3/3/1
f 7/1/1 6/1/1 5/1/1
f 8/1/1 6/1/1 7/1/1
f 13/3/1 10/3/1 9/3/1
f 14/3/1 10/3/1 13/3/1
f 15/3/1 12/3/1 11/3/1
f 16/3/1 12/3/1 15/3/1
f 19/3/1 18/3/1 17/3/1
f 20/3/1 18/3/1 19/3/1
f 23/1/1 22/1/1 21/1/1
f 24/1/1 22/1/1 23/1/1
f 27/1/1 26/1/1 25/1/1
f 28/1/1 26/1/1 27/1/1
f 31/1/1 30/1/1 29/1/1
f 32/1/1 30/1/1 31/1/1
f 35/1/1 34/1/1 33/1/1
f 36/1/1 34/1/1 35/1/1
f 39/1/1 38/1/1 37/1/1
f 40/1/1 38/1/1 39/1/1
f 43/1/1 42/1/1 41/1/1
f 44/1/1 42/1/1 43/1/1
f 47/1/1 46/1/1 45/1/1
f 48/1/1 46/1/1 47/1/1
f 53/3/1 50/3/1 49/3/1
f 54/3/1 50/3/1 53/3/1
f 55/3/1 52/3/1 51/3/1
f 56/3/1 52/3/1 55/3/1
f 59/3/1 58/3/1 57/3/1
f 60/3/1 58/3/1 59/3/1
f 63/1/1 62/1/1 61/1/1
f 64/1/1 62/1/1 63/1/1
f 67/1/1 66/1/1 65/1/1
f 68/1/1 66/1/1 67/1/1
f 73/3/1 70/3/1 69/3/1
f 74/3/1 70/3/1 73/3/1
f 75/3/1 72/3/1 71/3/1
f 76/3/1 72/3/1 75/3/1
f 79/3/1 78/3/1 77/3/1
f 80/3/1 78/3/1 79/3/1
f 81/3/2 82/3/2 83/3/2
f 83/3/2 82/3/2 84/3/2
f 85/3/2 86/3/2 89/3/2
f 89/3/2 86/3/2 90/3/2
f 87/3/2 88/3/2 91/3/2
f 91/3/2 88/3/2 92/3/2
f 93/1/2 94/1/2 95/1/2
f 95/1/2 94/1/2 96/1/2
f 97/1/2 98/1/2 99/1/2
f 99/1/2 98/1/2 100/1/2
f 101/1/2 102/1/2 103/1/2
f 103/1/2 102/1/2 104/1/2
f 105/1/2 106/1/2 107/1/2
f 107/1/2 106/1/2 108/1/2
f 109/1/2 110/1/2 111/1/2
f 111/1/2 110/1/2 112/1/2
f 113/1/2 114/1/2 115/1/2
f 115/1/2 114/1/2 116/1/2
f 117/3/2 118/3/2 121/3/2
f 121/3/2 118/3/2 122/3/2
f 119/1/2 120/1/2 123/1/2
f 123/1/2 120/1/2 124/1/2
f 125/3/2 126/3/2 129/3/2
f 129/3/2 126/3/2 130/3/2
f 127/3/2 128/3/2 131/3/2
f 131/3/2 128/3/2 132/3/2
f 133/1/2 134/1/2 135/1/2
f 135/1/2 134/1/2 136/1/2
f 137/1/2 138/1/2 139/1/2
f 139/1/2 138/1/2 140/1/2
f 141/3/2 142/3/2 143/3/2
f 143/3/2 142/3/2 144/3/2
f 145/3/2 146/3/2 149/3/2
f 149/3/2 146/3/2 150/3/2
f 147/3/2 148/3/2 151/3/2
f 151/3/2 148/3/2 152/3/2
f 153/1/2 154/1/2 155/1/2
f 155/1/2 154/1/2 156/1/2
f 157/3/2 158/3/2 159/3/2
f 159/3/2 158/3/2 160/3/2
f 163/3/3 162/3/3 161/3/3
f 164/3/3 162/3/3 163/3/3
f 166/1/3 164/1/3 163/1/3
f 166/1/3 165/1/3 164/1/3
f 167/1/3 165/1/3 166/1/3
f 168/1/3 165/1/3 167/1/3
f 169/3/3 167/3/3 166/3/3
f 170/3/3 167/3/3 169/3/3
f 172/1/3 170/1/3 169/1/3
f 172/1/3 171/1/3 170/1/3
f 173/1/3 171/1/3 172/1/3
f 174/1/3 171/1/3 173/1/3
f 175/3/3 173/3/3 172/3/3
f 176/3/3 173/3/3 175/3/3
f 179/1/3 178/1/3 177/1/3
f 180/1/3 178/1/3 179/1/3
f 183/1/3 182/1/3 181/1/3
f 184/1/3 182/1/3 183/1/3
f 187/3/3 186/3/3 185/3/3
f 188/3/3 186/3/3 187/3/3
f 191/3/3 190/3/3 189/3/3
f 192/3/3 190/3/3 191/3/3
f 195/3/3 194/3/3 193/3/3
f 196/3/3 194/3/3 195/3/3
f 199/3/3 198/3/3 197/3/3
f 200/3/3 198/3/3 199/3/3
f 203/3/3 202/3/3 201/3/3
f 204/3/3 202/3/3 203/3/3
f 207/3/3 206/3/3 205/3/3
f 208/3/3 206/3/3 207/3/3
f 211/1/3 210/1/3 209/1/3
f 212/1/3 210/1/3 211/1/3
f 215/1/3 214/1/3 213/1/3
f 216/1/3 214/1/3 215/1/3
f 219/1/3 218/1/3 217/1/3
f 220/1/3 218/1/3 219/1/3
f 223/1/3 222/1/3 221/1/3
f 224/1/3 222/1/3 223/1/3
f 227/1/3 226/1/3 225/1/3
f 228/1/3 226/1/3 227/1/3
f 231/3/3 230/3/3 229/3/3
f 232/3/3 230/3/3 231/3/3
f 235/3/3 234/3/3 233/3/3
f 236/3/3 234/3/3 235/3/3
f 239/3/3 238/3/3 237/3/3
f 240/3/3 238/3/3 239/3/3
f 241/3/4 242/3/4 243/3/4
f 243/3/4 242/3/4 244/3/4
f 245/3/4 246/3/4 247/3/4
f 247/3/4 246/3/4 248/3/4
f 249/3/4 250/3/4 251/3/4
f 251/3/4 250/3/4 252/3/4
f 253/1/4 254/1/4 255/1/4
f 255/1/4 254/1/4 256/1/4
f 257/1/4 258/1/4 259/1/4
f 259/1/4 258/1/4 260/1/4
f 261/3/4 262/3/4 263/3/4
f 263/3/4 262/3/4 264/3/4
f 265/3/4 266/3/4 267/3/4
f 267/3/4 266/3/4 268/3/4
f 269/3/4 270/3/4 271/3/4
f 271/3/4 270/3/4 272/3/4
f 273/1/4 274/1/4 275/1/4
f 275/1/4 274/1/4 276/1/4
f 277/1/4 278/1/4 279/1/4
f 279/1/4 278/1/4 280/1/4
f 281/1/4 282/1/4 283/1/4
f 283/1/4 282/1/4 284/1/4
f 285/1/4 286/1/4 287/1/4
f 287/1/4 286/1/4 288/1/4
f 289/1/4 290/1/4 291/1/4
f 291/1/4 290/1/4 292/1/4
f 293/1/4 294/1/4 295/1/4
f 295/1/4 294/1/4 296/1/4
f 297/1/4 298/1/4 299/1/4
f 299/1/4 298/1/4 300/1/4
f 301/1/4 302/1/4 303/1/4
f 303/1/4 302/1/4 304/1/4
f 305/1/4 306/1/4 307/1/4
f 307/1/4 306/1/4 308/1/4
f 309/3/4 310/3/4 311/3/4
f 311/3/4 310/3/4 312/3/4
f 313/3/4 314/3/4 315/3/4
f 315/3/4 314/3/4 316/3/4
f 317/3/4 318/3/4 319/3/4
f 319/3/4 318/3/4 320/3/4
f 321/3/4 322/3/4 323/3/4
f 323/3/4 322/3/4 324/3/4
f 331/3/5 330/3/5 329/3/5
f 332/3/5 330/3/5 331/3/5
f 333/1/5 329/1/5 328/1/5
f 333/3/5 331/3/5 329/3/5
f 334/3/5 331/3/5 333/3/5
f 335/3/5 331/3/5 334/3/5
f 336/2/5 332/2/5 331/2/5
f 336/3/5 331/3/5 335/3/5
f 337/3/5 330/3/5 332/3/5
f 337/2/5 332/2/5 336/2/5
f 338/3/5 330/3/5 337/3/5
f 339/3/5 328/3/5 327/3/5
f 339/1/5 333/1/5 328/1/5
f 339/1/5 334/1/5 333/1/5
f 340/1/5 334/1/5 339/1/5
f 341/1/5 327/1/5 326/1/5
f 341/3/5 339/3/5 327/3/5
f 341/3/5 340/3/5 339/3/5
f 342/3/5 340/3/5 341/3/5
f 343/2/5 336/2/5 335/2/5
f 343/3/5 335/3/5 334/3/5
f 344/3/5 337/3/5 336/3/5
f 344/2/5 336/2/5 343/2/5
f 345/2/5 338/2/5 337/2/5
f 345/3/5 337/3/5 344/3/5
f 346/3/5 330/3/5 338/3/5
f 346/2/5 338/2/5 345/2/5
f 347/3/5 326/3/5 325/3/5
f 347/1/5 342/1/5 341/1/5
f 347/1/5 341/1/5 326/1/5
f 348/1/5 342/1/5 347/1/5
f 349/2/5 345/2/5 344/2/5
f 349/3/5 344/3/5 343/3/5
f 350/3/5 346/3/5 345/3/5
f 350/2/5 345/2/5 349/2/5
f 351/3/5 348/3/5 347/3/5
f 351/3/5 347/3/5 325/3/5
f 352/3/5 348/3/5 351/3/5
f 353/3/5 351/3/5 325/3/5
f 354/2/5 352/2/5 351/2/5
f 354/3/5 351/3/5 353/3/5
f 355/3/5 348/3/5 352/3/5
f 355/2/5 352/2/5 354/2/5
f 356/3/5 348/3/5 355/3/5
f 357/1/5 342/1/5 348/1/5
f 357/3/5 348/3/5 356/3/5
f 358/3/5 340/3/5 342/3/5
f 358/1/5 342/1/5 357/1/5
f 359/1/5 334/1/5 340/1/5
f 359/3/5 340/3/5 358/3/5
f 360/3/5 349/3/5 343/3/5
f 360/1/5 334/1/5 359/1/5
f 360/3/5 343/3/5 334/3/5
f 360/3/5 350/3/5 349/3/5
f 361/3/5 353/3/5 325/3/5
f 361/2/5 354/2/5 353/2/5
f 362/3/5 355/3/5 354/3/5
f 362/2/5 354/2/5 361/2/5
f 363/2/5 356/2/5 355/2/5
f 363/3/5 355/3/5 362/3/5
f 364/3/5 358/3/5 357/3/5
f 364/2/5 356/2/5 363/2/5
f 364/3/5 357/3/5 356/3/5
f 364/3/5 360/3/5 359/3/5
f 364/3/5 359/3/5 358/3/5
f 365/2/5 363/2/5 362/2/5
f 365/3/5 362/3/5 361/3/5
f 366/3/5 364/3/5 363/3/5
f 366/2/5 363/2/5 365/2/5
f 367/3/5 366/3/5 365/3/5
f 368/3/5 360/3/5 364/3/5
f 368/3/5 366/3/5 367/3/5
f 368/3/5 364/3/5 366/3/5
f 369/3/5 360/3/5 368/3/5
f 370/3/5 350/3/5 360/3/5
f 370/3/5 360/3/5 369/3/5
f 371/3/5 350/3/5 370/3/5
f 372/3/5 350/3/5 371/3/5
f 373/1/5 368/1/5 367/1/5
f 374/1/5 368/1/5 373/1/5
f 375/1/5 372/1/5 371/1/5
f 376/1/5 372/1/5 375/1/5
f 377/3/5 374/3/5 373/3/5
f 378/1/5 368/1/5 374/1/5
f 378/3/5 374/3/5 377/3/5
f 379/1/5 378/1/5 377/1/5
f 380/3/5 369/3/5 368/3/5
f 380/1/5 378/1/5 379/1/5
f 380/1/5 368/1/5 378/1/5
f 381/1/5 370/1/5 369/1/5
f 381/3/5 369/3/5 380/3/5
f 382/3/5 371/3/5 370/3/5
f 382/1/5 370/1/5 381/1/5
f 383/1/5 375/1/5 371/1/5
f 383/3/5 376/3/5 375/3/5
f 384/1/5 372/1/5 376/1/5
f 384/3/5 376/3/5 383/3/5
f 385/3/5 367/3/5 365/3/5
f 385/1/5 373/1/5 367/1/5
f 386/3/5 377/3/5 373/3/5
f 386/1/5 373/1/5 385/1/5
f 387/1/5 379/1/5 377/1/5
f 387/3/5 377/3/5 386/3/5
f 388/3/5 380/3/5 379/3/5
f 388/1/5 379/1/5 387/1/5
f 388/3/5 381/3/5 380/3/5
f 388/3/5 382/3/5 381/3/5
f 389/3/5 371/3/5 382/3/5
f 389/3/5 382/3/5 388/3/5
f 389/1/5 384/1/5 383/1/5
f 389/1/5 383/1/5 371/1/5
f 390/1/5 372/1/5 384/1/5
f 390/1/5 384/1/5 389/1/5
f 390/3/5 350/3/5 372/3/5
f 391/3/5 389/3/5 388/3/5
f 391/3/5 386/3/5 385/3/5
f 391/3/5 390/3/5 389/3/5
f 391/3/5 388/3/5 387/3/5
f 391/3/5 387/3/5 386/3/5
f 392/3/5 390/3/5 391/3/5
f 393/3/5 391/3/5 385/3/5
f 394/2/5 392/2/5 391/2/5
f 394/3/5 391/3/5 393/3/5
f 395/3/5 390/3/5 392/3/5
f 395/2/5 392/2/5 394/2/5
f 396/3/5 390/3/5 395/3/5
f 397/2/5 394/2/5 393/2/5
f 397/3/5 393/3/5 385/3/5
f 398/3/5 395/3/5 394/3/5
f 398/2/5 394/2/5 397/2/5
f 399/2/5 396/2/5 395/2/5
f 399/3/5 395/3/5 398/3/5
f 400/3/5 390/3/5 396/3/5
f 400/2/5 396/2/5 399/2/5
f 401/2/5 399/2/5 398/2/5
f 401/3/5 398/3/5 397/3/5
f 402/3/5 400/3/5 399/3/5
f 402/2/5 399/2/5 401/2/5
f 403/3/5 365/3/5 361/3/5
f 403/3/5 385/3/5 365/3/5
f 403/3/5 402/3/5 401/3/5
f 403/3/5 397/3/5 385/3/5
f 403/3/5 401/3/5 397/3/5
f 403/3/5 361/3/5 325/3/5
f 404/3/5 330/3/5 346/3/5
f 404/3/5 402/3/5 403/3/5
f 404/3/5 350/3/5 390/3/5
f 404/3/5 346/3/5 350/3/5
f 404/3/5 390/3/5 400/3/5
f 404/3/5 400/3/5 402/3/5
f 405/2/6 406/2/6 408/2/6
f 408/2/6 406/2/6 409/2/6
f 407/2/6 408/2/6 411/2/6
f 408/3/6 409/3/6 412/3/6
f 411/2/6 408/2/6 412/2/6
f 409/2/6 410/2/6 413/2/6
f 412/3/6 409/3/6 413/3/6
f 413/2/6 410/2/6 414/2/6
f 412/2/6 413/2/6 415/2/6
f 415/2/6 413/2/6 416/2/6
f 417/2/6 418/2/6 420/2/6
f 420/2/6 418/2/6 421/2/6
f 419/2/6 420/2/6 423/2/6
f 420/3/6 421/3/6 424/3/6
f 423/2/6 420/2/6 424/2/6
f 421/2/6 422/2/6 425/2/6
f 424/3/6 421/3/6 425/3/6
f 425/2/6 422/2/6 426/2/6
f 424/2/6 425/2/6 427/2/6
f 427/2/6 425/2/6 428/2/6
f 429/3/6 430/3/6 431/3/6
f 431/3/6 430/3/6 432/3/6
f 433/2/6 434/2/6 436/2/6
f 436/2/6 434/2/6 437/2/6
f 435/2/6 436/2/6 439/2/6
f 436/3/6 437/3/6 440/3/6
f 439/2/6 436/2/6 440/2/6
f 437/2/6 438/2/6 441/2/6
f 440/3/6 437/3/6 441/3/6
f 441/2/6 438/2/6 442/2/6
f 440/2/6 441/2/6 443/2/6
f 443/2/6 441/2/6 444/2/6
f 449/3/6 450/3/6 451/3/6
f 451/3/6 450/3/6 452/3/6
f 449/3/6 451/3/6 453/3/6
f 453/3/6 451/3/6 454/3/6
f 454/3/6 451/3/6 455/3/6
f 455/3/6 451/3/6 456/3/6
f 452/3/6 450/3/6 457/3/6
f 457/3/6 450/3/6 458/3/6
f 447/3/6 448/3/6 459/3/6
f 447/3/6 459/3/6 461/3/6
f 459/3/6 460/3/6 461/3/6
f 461/3/6 460/3/6 462/3/6
f 454/3/6 455/3/6 463/3/6
f 458/3/6 450/3/6 466/3/6
f 445/3/6 446/3/6 467/3/6
f 463/3/6 464/3/6 469/3/6
f 465/3/6 466/3/6 470/3/6
f 467/3/6 468/3/6 471/3/6
f 445/3/6 467/3/6 471/3/6
f 471/3/6 468/3/6 472/3/6
f 445/3/6 471/3/6 473/3/6
f 473/3/6 471/3/6 474/3/6
f 472/3/6 468/3/6 475/3/6
f 475/3/6 468/3/6 476/3/6
f 476/3/6 468/3/6 477/3/6
f 462/3/6 460/3/6 478/3/6
f 478/3/6 460/3/6 479/3/6
f 463/3/6 469/3/6 480/3/6
f 469/3/6 470/3/6 480/3/6
f 454/3/6 463/3/6 480/3/6
f 445/3/6 473/3/6 481/3/6
f 478/3/6 479/3/6 484/3/6
f 477/3/6 478/3/6 484/3/6
f 476/3/6 477/3/6 484/3/6
f 479/3/6 480/3/6 484/3/6
f 481/3/6 482/3/6 485/3/6
f 483/3/6 484/3/6 486/3/6
f 485/3/6 486/3/6 487/3/6
f 484/3/6 480/3/6 488/3/6
f 487/3/6 486/3/6 488/3/6
f 486/3/6 484/3/6 488/3/6
f 488/3/6 480/3/6 489/3/6
f 480/3/6 470/3/6 490/3/6
f 489/3/6 480/3/6 490/3/6
f 490/3/6 470/3/6 491/3/6
f 491/3/6 470/3/6 492/3/6
f 493/3/6 494/3/6 495/3/6
f 495/3/6 494/3/6 496/3/6
f 488/3/6 489/3/6 498/3/6
f 498/3/6 489/3/6 499/3/6
f 490/3/6 491/3/6 500/3/6
f 485/3/6 487/3/6 501/3/6
f 493/3/6 495/3/6 502/3/6
f 502/3/6 495/3/6 503/3/6
f 499/3/6 500/3/6 504/3/6
f 498/3/6 499/3/6 504/3/6
f 497/3/6 498/3/6 504/3/6
f 500/3/6 491/3/6 505/3/6
f 504/3/6 500/3/6 505/3/6
f 492/3/6 470/3/6 506/3/6
f 502/3/6 503/3/6 507/3/6
f 505/3/6 506/3/6 507/3/6
f 504/3/6 505/3/6 507/3/6
f 501/3/6 502/3/6 507/3/6
f 503/3/6 504/3/6 507/3/6
f 507/3/6 506/3/6 508/3/6
f 501/3/6 507/3/6 509/3/6
f 509/3/6 507/3/6 510/3/6
f 508/3/6 506/3/6 511/3/6
f 511/3/6 506/3/6 512/3/6
f 501/3/6 509/3/6 513/3/6
f 512/3/6 506/3/6 516/3/6
f 513/3/6 514/3/6 517/3/6
f 515/3/6 516/3/6 518/3/6
f 481/3/6 485/3/6 519/3/6
f 517/3/6 518/3/6 519/3/6
f 445/3/6 481/3/6 519/3/6
f 485/3/6 501/3/6 519/3/6
f 513/3/6 517/3/6 519/3/6
f 501/3/6 513/3/6 519/3/6
f 518/3/6 516/3/6 520/3/6
f 519/3/6 518/3/6 520/3/6
f 516/3/6 506/3/6 520/3/6
f 466/3/6 450/3/6 520/3/6
f 470/3/6 466/3/6 520/3/6
f 506/3/6 470/3/6 520/3/6
f 523/1/6 524/1/6 525/1/6
f 523/1/6 525/1/6 527/1/6
f 525/1/6 526/1/6 527/1/6
f 527/1/6 526/1/6 528/1/6
f 521/1/6 522/1/6 529/1/6
f 521/1/6 529/1/6 531/1/6
f 529/1/6 530/1/6 531/1/6
f 531/1/6 530/1/6 532/1/6
f 532/1/6 530/1/6 533/1/6
f 533/1/6 530/1/6 534/1/6
f 528/1/6 526/1/6 535/1/6
f 535/1/6 526/1/6 536/1/6
f 537/1/6 538/1/6 543/1/6
f 543/1/6 538/1/6 544/1/6
f 541/1/6 542/1/6 545/1/6
f 545/1/6 542/1/6 546/1/6
f 544/1/6 538/1/6 548/1/6
f 547/1/6 548/1/6 549/1/6
f 548/1/6 538/1/6 550/1/6
f 549/1/6 548/1/6 550/1/6
f 539/1/6 540/1/6 551/1/6
f 551/1/6 540/1/6 552/1/6
f 541/1/6 545/1/6 553/1/6
f 546/1/6 542/1/6 554/1/6
f 537/1/6 543/1/6 555/1/6
f 555/1/6 543/1/6 556/1/6
f 547/1/6 549/1/6 557/1/6
f 557/1/6 549/1/6 558/1/6
f 553/1/6 554/1/6 559/1/6
f 541/1/6 553/1/6 559/1/6
f 554/1/6 542/1/6 560/1/6
f 559/1/6 554/1/6 560/1/6
