# MagicaVoxel @ Ephtracy

# group
o Niveau 1

# material
mtllib test.mtl
usemtl palette

# normals
vn -1 0 0
vn 1 0 0
vn 0 0 1
vn 0 0 -1
vn 0 -1 0
vn 0 1 0

# texcoords
vt 0.00195312 0.5
vt 0.0917969 0.5
vt 0.751953 0.5
vt 0.876953 0.5

# verts
v -1.6 0 1.4
v -1.6 0 -1.4
v -1.6 0 -1.5
v -1.6 0.1 1.4
v -1.6 0.1 -1.4
v -1.6 0.1 -1.5
v -1.1 0.1 -0.1
v -1.1 0.1 -1.2
v -1.1 0.3 -0.1
v -1.1 0.3 -1.2
v -0.9 0.1 -0.3
v -0.9 0.1 -1.2
v -0.9 0.3 -0.3
v -0.9 0.3 -1.2
v -0.8 0.1 1.4
v -0.8 0.1 0.7
v -0.8 0.3 1.4
v -0.8 0.3 0.7
v -0.6 0.1 1.4
v -0.6 0.1 0.9
v -0.6 0.3 1.4
v -0.6 0.3 0.9
v -0.4 0.1 -0.2
v -0.4 0.1 -0.3
v -0.4 0.3 -0.2
v -0.4 0.3 -0.3
v -0.1 0.1 0.7
v -0.1 0.1 0.4
v -0.1 0.3 0.7
v -0.1 0.3 0.4
v 0 0.1 -0.1
v 0 0.1 -0.4
v 0 0.3 -0.1
v 0 0.3 -0.4
v 0.1 0.1 0.9
v 0.1 0.1 0.4
v 0.1 0.3 0.9
v 0.1 0.3 0.4
v 0.8 0.1 -0.1
v 0.8 0.1 -1.2
v 0.8 0.3 -0.1
v 0.8 0.3 -1.2
v 1 0.1 -0.2
v 1 0.1 -1.1
v 1 0.3 -0.2
v 1 0.3 -1.1
v -1 0.1 -0.2
v -1 0.1 -1.2
v -1 0.3 -0.2
v -1 0.3 -1.2
v -0.8 0.1 -0.4
v -0.8 0.1 -1.2
v -0.8 0.3 -0.4
v -0.8 0.3 -1.2
v -0.7 0.1 1.4
v -0.7 0.1 0.8
v -0.7 0.3 1.4
v -0.7 0.3 0.8
v -0.5 0.1 1.4
v -0.5 0.1 1
v -0.5 0.3 1.4
v -0.5 0.3 1
v -0.3 0.1 -0.1
v -0.3 0.1 -0.4
v -0.3 0.3 -0.1
v -0.3 0.3 -0.4
v 0 0.1 0.8
v 0 0.1 0.4
v 0 0.3 0.8
v 0 0.3 0.4
v 0.2 0.1 1
v 0.2 0.1 0.4
v 0.2 0.3 1
v 0.2 0.3 0.4
v 0.5 0.1 -0.1
v 0.5 0.1 -0.4
v 0.5 0.3 -0.1
v 0.5 0.3 -0.4
v 0.9 0.1 -0.2
v 0.9 0.1 -1.1
v 0.9 0.3 -0.2
v 0.9 0.3 -1.1
v 1.1 0.1 -0.1
v 1.1 0.1 -1.2
v 1.1 0.3 -0.1
v 1.1 0.3 -1.2
v 1.6 0 1.4
v 1.6 0 -1.4
v 1.6 0 -1.5
v 1.6 0.1 1.4
v 1.6 0.1 -1.4
v 1.6 0.1 -1.5
v -1.6 0 1.4
v -1.6 0.1 1.4
v -0.8 0 1.4
v -0.8 0.1 1.4
v -0.8 0.3 1.4
v -0.7 0 1.4
v -0.7 0.1 1.4
v -0.7 0.3 1.4
v -0.6 0 1.4
v -0.6 0.1 1.4
v -0.6 0.3 1.4
v -0.5 0 1.4
v -0.5 0.1 1.4
v -0.5 0.3 1.4
v 1.1 0 1.4
v 1.1 0.1 1.4
v 1.2 0 1.4
v 1.2 0.1 1.4
v 1.4 0 1.4
v 1.4 0.1 1.4
v 1.5 0 1.4
v 1.5 0.1 1.4
v 1.6 0 1.4
v 1.6 0.1 1.4
v -0.5 0.1 1
v -0.5 0.3 1
v 0.2 0.1 1
v 0.2 0.3 1
v -0.7 0.1 0.8
v -0.7 0.3 0.8
v 0 0.1 0.8
v 0 0.3 0.8
v -1.1 0.1 -0.1
v -1.1 0.3 -0.1
v -0.3 0.1 -0.1
v -0.3 0.3 -0.1
v 0 0.1 -0.1
v 0 0.3 -0.1
v 0.5 0.1 -0.1
v 0.5 0.3 -0.1
v 0.8 0.1 -0.1
v 0.8 0.3 -0.1
v 1.1 0.1 -0.1
v 1.1 0.3 -0.1
v -0.9 0.1 -0.3
v -0.9 0.3 -0.3
v -0.4 0.1 -0.3
v -0.4 0.3 -0.3
v 0.9 0.1 -1.1
v 0.9 0.3 -1.1
v 1 0.1 -1.1
v 1 0.3 -1.1
v -0.6 0.1 0.9
v -0.6 0.3 0.9
v 0.1 0.1 0.9
v 0.1 0.3 0.9
v -0.8 0.1 0.7
v -0.8 0.3 0.7
v -0.1 0.1 0.7
v -0.1 0.3 0.7
v -0.1 0.1 0.4
v -0.1 0.3 0.4
v 0 0.1 0.4
v 0 0.3 0.4
v 0.1 0.1 0.4
v 0.1 0.3 0.4
v 0.2 0.1 0.4
v 0.2 0.3 0.4
v -1 0.1 -0.2
v -1 0.3 -0.2
v -0.4 0.1 -0.2
v -0.4 0.3 -0.2
v 0.9 0.1 -0.2
v 0.9 0.3 -0.2
v 1 0.1 -0.2
v 1 0.3 -0.2
v -0.8 0.1 -0.4
v -0.8 0.3 -0.4
v -0.3 0.1 -0.4
v -0.3 0.3 -0.4
v 0 0.1 -0.4
v 0 0.3 -0.4
v 0.5 0.1 -0.4
v 0.5 0.3 -0.4
v -1.1 0.1 -1.2
v -1.1 0.3 -1.2
v -1 0.1 -1.2
v -1 0.3 -1.2
v -0.9 0.1 -1.2
v -0.9 0.3 -1.2
v -0.8 0.1 -1.2
v -0.8 0.3 -1.2
v 0.8 0.1 -1.2
v 0.8 0.3 -1.2
v 1.1 0.1 -1.2
v 1.1 0.3 -1.2
v -1.6 0 -1.5
v -1.6 0.1 -1.5
v 1.6 0 -1.5
v 1.6 0.1 -1.5
v -1.6 0 1.4
v -0.8 0 1.4
v -0.7 0 1.4
v -0.6 0 1.4
v -0.5 0 1.4
v 1.1 0 1.4
v 1.2 0 1.4
v 1.4 0 1.4
v 1.5 0 1.4
v 1.6 0 1.4
v -1.4 0 1.3
v -1.2 0 1.3
v -1.4 0 1.1
v -1.2 0 1.1
v 1.2 0 1.1
v 1.4 0 1.1
v -0.5 0 1
v 0.2 0 1
v 1.1 0 1
v 1.5 0 1
v -0.6 0 0.9
v 0.1 0 0.9
v -0.7 0 0.8
v 0 0 0.8
v -0.8 0 0.7
v -0.1 0 0.7
v -0.1 0 0.4
v 0 0 0.4
v 0.1 0 0.4
v 0.2 0 0.4
v -1.1 0 -0.1
v -0.3 0 -0.1
v 0 0 -0.1
v 0.5 0 -0.1
v 0.8 0 -0.1
v 1.1 0 -0.1
v -1 0 -0.2
v -0.4 0 -0.2
v 0.9 0 -0.2
v 1 0 -0.2
v -0.9 0 -0.3
v -0.4 0 -0.3
v -0.8 0 -0.4
v -0.3 0 -0.4
v 0 0 -0.4
v 0.5 0 -0.4
v 1.3 0 -0.9
v 1.5 0 -0.9
v 0.9 0 -1.1
v 1 0 -1.1
v 1.3 0 -1.1
v 1.5 0 -1.1
v -1.1 0 -1.2
v -1 0 -1.2
v -0.9 0 -1.2
v -0.8 0 -1.2
v 0.8 0 -1.2
v 1.1 0 -1.2
v -1.6 0 -1.4
v 1.6 0 -1.4
v -1.6 0 -1.5
v 1.6 0 -1.5
v -1.6 0.1 1.4
v -0.8 0.1 1.4
v -0.7 0.1 1.4
v -0.6 0.1 1.4
v -0.5 0.1 1.4
v 1.1 0.1 1.4
v 1.2 0.1 1.4
v 1.4 0.1 1.4
v 1.5 0.1 1.4
v 1.6 0.1 1.4
v -1.4 0.1 1.3
v -1.2 0.1 1.3
v -1.4 0.1 1.1
v -1.2 0.1 1.1
v 1.2 0.1 1.1
v 1.4 0.1 1.1
v -0.5 0.1 1
v 0.2 0.1 1
v 1.1 0.1 1
v 1.5 0.1 1
v -0.6 0.1 0.9
v 0.1 0.1 0.9
v -0.7 0.1 0.8
v 0 0.1 0.8
v -0.8 0.1 0.7
v -0.1 0.1 0.7
v -0.1 0.1 0.4
v 0 0.1 0.4
v 0.1 0.1 0.4
v 0.2 0.1 0.4
v -1.1 0.1 -0.1
v -0.3 0.1 -0.1
v 0 0.1 -0.1
v 0.5 0.1 -0.1
v 0.8 0.1 -0.1
v 1.1 0.1 -0.1
v -1 0.1 -0.2
v -0.4 0.1 -0.2
v 0.9 0.1 -0.2
v 1 0.1 -0.2
v -0.9 0.1 -0.3
v -0.4 0.1 -0.3
v -0.8 0.1 -0.4
v -0.3 0.1 -0.4
v 0 0.1 -0.4
v 0.5 0.1 -0.4
v 1.3 0.1 -0.9
v 1.5 0.1 -0.9
v 0.9 0.1 -1.1
v 1 0.1 -1.1
v 1.3 0.1 -1.1
v 1.5 0.1 -1.1
v -1.1 0.1 -1.2
v -1 0.1 -1.2
v -0.9 0.1 -1.2
v -0.8 0.1 -1.2
v 0.8 0.1 -1.2
v 1.1 0.1 -1.2
v -1.6 0.1 -1.4
v 1.6 0.1 -1.4
v -1.6 0.1 -1.5
v 1.6 0.1 -1.5
v -0.8 0.3 1.4
v -0.7 0.3 1.4
v -0.6 0.3 1.4
v -0.5 0.3 1.4
v -0.5 0.3 1
v 0.2 0.3 1
v -0.6 0.3 0.9
v 0.1 0.3 0.9
v -0.7 0.3 0.8
v 0 0.3 0.8
v -0.8 0.3 0.7
v -0.1 0.3 0.7
v -0.1 0.3 0.4
v 0 0.3 0.4
v 0.1 0.3 0.4
v 0.2 0.3 0.4
v -1.1 0.3 -0.1
v -0.3 0.3 -0.1
v 0 0.3 -0.1
v 0.5 0.3 -0.1
v 0.8 0.3 -0.1
v 1.1 0.3 -0.1
v -1 0.3 -0.2
v -0.4 0.3 -0.2
v 0.9 0.3 -0.2
v 1 0.3 -0.2
v -0.9 0.3 -0.3
v -0.4 0.3 -0.3
v -0.8 0.3 -0.4
v -0.3 0.3 -0.4
v 0 0.3 -0.4
v 0.5 0.3 -0.4
v 0.9 0.3 -1.1
v 1 0.3 -1.1
v -1.1 0.3 -1.2
v -1 0.3 -1.2
v -0.9 0.3 -1.2
v -0.8 0.3 -1.2
v 0.8 0.3 -1.2
v 1.1 0.3 -1.2

# faces
f 4/2/1 2/2/1 1/2/1
f 5/4/1 3/4/1 2/4/1
f 5/2/1 2/2/1 4/2/1
f 6/4/1 3/4/1 5/4/1
f 9/1/1 8/1/1 7/1/1
f 10/1/1 8/1/1 9/1/1
f 13/1/1 12/1/1 11/1/1
f 14/1/1 12/1/1 13/1/1
f 17/1/1 16/1/1 15/1/1
f 18/1/1 16/1/1 17/1/1
f 21/1/1 20/1/1 19/1/1
f 22/1/1 20/1/1 21/1/1
f 25/1/1 24/1/1 23/1/1
f 26/1/1 24/1/1 25/1/1
f 29/1/1 28/1/1 27/1/1
f 30/1/1 28/1/1 29/1/1
f 33/1/1 32/1/1 31/1/1
f 34/1/1 32/1/1 33/1/1
f 37/1/1 36/1/1 35/1/1
f 38/1/1 36/1/1 37/1/1
f 41/1/1 40/1/1 39/1/1
f 42/1/1 40/1/1 41/1/1
f 45/1/1 44/1/1 43/1/1
f 46/1/1 44/1/1 45/1/1
f 47/1/2 48/1/2 49/1/2
f 49/1/2 48/1/2 50/1/2
f 51/1/2 52/1/2 53/1/2
f 53/1/2 52/1/2 54/1/2
f 55/1/2 56/1/2 57/1/2
f 57/1/2 56/1/2 58/1/2
f 59/1/2 60/1/2 61/1/2
f 61/1/2 60/1/2 62/1/2
f 63/1/2 64/1/2 65/1/2
f 65/1/2 64/1/2 66/1/2
f 67/1/2 68/1/2 69/1/2
f 69/1/2 68/1/2 70/1/2
f 71/1/2 72/1/2 73/1/2
f 73/1/2 72/1/2 74/1/2
f 75/1/2 76/1/2 77/1/2
f 77/1/2 76/1/2 78/1/2
f 79/1/2 80/1/2 81/1/2
f 81/1/2 80/1/2 82/1/2
f 83/1/2 84/1/2 85/1/2
f 85/1/2 84/1/2 86/1/2
f 87/2/2 88/2/2 90/2/2
f 88/4/2 89/4/2 91/4/2
f 90/2/2 88/2/2 91/2/2
f 91/4/2 89/4/2 92/4/2
f 95/2/3 94/2/3 93/2/3
f 96/2/3 94/2/3 95/2/3
f 98/1/3 96/1/3 95/1/3
f 98/1/3 97/1/3 96/1/3
f 99/1/3 97/1/3 98/1/3
f 100/1/3 97/1/3 99/1/3
f 101/2/3 99/2/3 98/2/3
f 102/2/3 99/2/3 101/2/3
f 104/1/3 102/1/3 101/1/3
f 104/1/3 103/1/3 102/1/3
f 105/1/3 103/1/3 104/1/3
f 106/1/3 103/1/3 105/1/3
f 107/2/3 105/2/3 104/2/3
f 108/2/3 105/2/3 107/2/3
f 109/4/3 108/4/3 107/4/3
f 110/4/3 108/4/3 109/4/3
f 111/2/3 110/2/3 109/2/3
f 112/2/3 110/2/3 111/2/3
f 113/4/3 112/4/3 111/4/3
f 114/4/3 112/4/3 113/4/3
f 115/2/3 114/2/3 113/2/3
f 116/2/3 114/2/3 115/2/3
f 119/1/3 118/1/3 117/1/3
f 120/1/3 118/1/3 119/1/3
f 123/1/3 122/1/3 121/1/3
f 124/1/3 122/1/3 123/1/3
f 127/1/3 126/1/3 125/1/3
f 128/1/3 126/1/3 127/1/3
f 131/1/3 130/1/3 129/1/3
f 132/1/3 130/1/3 131/1/3
f 135/1/3 134/1/3 133/1/3
f 136/1/3 134/1/3 135/1/3
f 139/1/3 138/1/3 137/1/3
f 140/1/3 138/1/3 139/1/3
f 143/1/3 142/1/3 141/1/3
f 144/1/3 142/1/3 143/1/3
f 145/1/4 146/1/4 147/1/4
f 147/1/4 146/1/4 148/1/4
f 149/1/4 150/1/4 151/1/4
f 151/1/4 150/1/4 152/1/4
f 153/1/4 154/1/4 155/1/4
f 155/1/4 154/1/4 156/1/4
f 157/1/4 158/1/4 159/1/4
f 159/1/4 158/1/4 160/1/4
f 161/1/4 162/1/4 163/1/4
f 163/1/4 162/1/4 164/1/4
f 165/1/4 166/1/4 167/1/4
f 167/1/4 166/1/4 168/1/4
f 169/1/4 170/1/4 171/1/4
f 171/1/4 170/1/4 172/1/4
f 173/1/4 174/1/4 175/1/4
f 175/1/4 174/1/4 176/1/4
f 177/1/4 178/1/4 179/1/4
f 179/1/4 178/1/4 180/1/4
f 181/1/4 182/1/4 183/1/4
f 183/1/4 182/1/4 184/1/4
f 185/1/4 186/1/4 187/1/4
f 187/1/4 186/1/4 188/1/4
f 189/4/4 190/4/4 191/4/4
f 191/4/4 190/4/4 192/4/4
f 203/2/5 194/2/5 193/2/5
f 204/2/5 194/2/5 203/2/5
f 205/2/5 203/2/5 193/2/5
f 205/3/5 204/3/5 203/3/5
f 206/2/5 194/2/5 204/2/5
f 206/3/5 204/3/5 205/3/5
f 207/4/5 199/4/5 198/4/5
f 207/2/5 200/2/5 199/2/5
f 208/4/5 201/4/5 200/4/5
f 208/2/5 200/2/5 207/2/5
f 209/1/5 197/1/5 196/1/5
f 209/2/5 198/2/5 197/2/5
f 210/2/5 198/2/5 209/2/5
f 211/4/5 208/4/5 207/4/5
f 211/2/5 198/2/5 210/2/5
f 211/4/5 207/4/5 198/4/5
f 212/2/5 202/2/5 201/2/5
f 212/4/5 208/4/5 211/4/5
f 212/4/5 201/4/5 208/4/5
f 213/2/5 196/2/5 195/2/5
f 213/1/5 210/1/5 209/1/5
f 213/1/5 209/1/5 196/1/5
f 214/1/5 210/1/5 213/1/5
f 215/1/5 195/1/5 194/1/5
f 215/2/5 213/2/5 195/2/5
f 215/2/5 214/2/5 213/2/5
f 216/2/5 214/2/5 215/2/5
f 217/2/5 194/2/5 206/2/5
f 217/2/5 206/2/5 205/2/5
f 217/1/5 216/1/5 215/1/5
f 217/1/5 215/1/5 194/1/5
f 218/1/5 216/1/5 217/1/5
f 219/2/5 218/2/5 217/2/5
f 219/1/5 216/1/5 218/1/5
f 220/2/5 214/2/5 216/2/5
f 220/1/5 216/1/5 219/1/5
f 221/1/5 210/1/5 214/1/5
f 221/2/5 214/2/5 220/2/5
f 222/2/5 211/2/5 210/2/5
f 222/1/5 210/1/5 221/1/5
f 222/2/5 212/2/5 211/2/5
f 223/2/5 221/2/5 220/2/5
f 223/2/5 220/2/5 219/2/5
f 223/2/5 222/2/5 221/2/5
f 223/2/5 219/2/5 217/2/5
f 223/2/5 217/2/5 205/2/5
f 224/2/5 222/2/5 223/2/5
f 225/2/5 222/2/5 224/2/5
f 226/2/5 212/2/5 222/2/5
f 226/2/5 222/2/5 225/2/5
f 227/2/5 212/2/5 226/2/5
f 228/2/5 212/2/5 227/2/5
f 229/1/5 224/1/5 223/1/5
f 230/1/5 224/1/5 229/1/5
f 231/1/5 228/1/5 227/1/5
f 232/1/5 228/1/5 231/1/5
f 233/2/5 230/2/5 229/2/5
f 234/1/5 224/1/5 230/1/5
f 234/2/5 230/2/5 233/2/5
f 235/1/5 234/1/5 233/1/5
f 236/2/5 225/2/5 224/2/5
f 236/1/5 234/1/5 235/1/5
f 236/1/5 224/1/5 234/1/5
f 237/1/5 226/1/5 225/1/5
f 237/2/5 225/2/5 236/2/5
f 238/2/5 227/2/5 226/2/5
f 238/1/5 226/1/5 237/1/5
f 239/2/5 212/2/5 228/2/5
f 240/2/5 202/2/5 212/2/5
f 240/2/5 212/2/5 239/2/5
f 241/1/5 231/1/5 227/1/5
f 241/2/5 232/2/5 231/2/5
f 242/1/5 228/1/5 232/1/5
f 242/2/5 232/2/5 241/2/5
f 243/2/5 239/2/5 228/2/5
f 243/3/5 240/3/5 239/3/5
f 244/2/5 202/2/5 240/2/5
f 244/3/5 240/3/5 243/3/5
f 245/2/5 223/2/5 205/2/5
f 245/1/5 229/1/5 223/1/5
f 246/2/5 233/2/5 229/2/5
f 246/1/5 229/1/5 245/1/5
f 247/1/5 235/1/5 233/1/5
f 247/2/5 233/2/5 246/2/5
f 248/2/5 236/2/5 235/2/5
f 248/1/5 235/1/5 247/1/5
f 248/2/5 237/2/5 236/2/5
f 248/2/5 238/2/5 237/2/5
f 249/2/5 227/2/5 238/2/5
f 249/2/5 238/2/5 248/2/5
f 249/1/5 242/1/5 241/1/5
f 249/1/5 241/1/5 227/1/5
f 250/1/5 228/1/5 242/1/5
f 250/1/5 242/1/5 249/1/5
f 250/2/5 243/2/5 228/2/5
f 250/2/5 244/2/5 243/2/5
f 251/2/5 246/2/5 245/2/5
f 251/2/5 205/2/5 193/2/5
f 251/2/5 250/2/5 249/2/5
f 251/2/5 245/2/5 205/2/5
f 251/2/5 247/2/5 246/2/5
f 251/2/5 248/2/5 247/2/5
f 251/2/5 249/2/5 248/2/5
f 252/2/5 244/2/5 250/2/5
f 252/2/5 250/2/5 251/2/5
f 252/2/5 202/2/5 244/2/5
f 253/4/5 252/4/5 251/4/5
f 254/4/5 252/4/5 253/4/5
f 255/2/6 256/2/6 265/2/6
f 265/2/6 256/2/6 266/2/6
f 255/2/6 265/2/6 267/2/6
f 265/3/6 266/3/6 267/3/6
f 266/2/6 256/2/6 268/2/6
f 267/3/6 266/3/6 268/3/6
f 260/4/6 261/4/6 269/4/6
f 261/2/6 262/2/6 269/2/6
f 262/4/6 263/4/6 270/4/6
f 269/2/6 262/2/6 270/2/6
f 259/2/6 260/2/6 271/2/6
f 271/2/6 260/2/6 272/2/6
f 260/4/6 269/4/6 273/4/6
f 272/2/6 260/2/6 273/2/6
f 269/4/6 270/4/6 273/4/6
f 263/2/6 264/2/6 274/2/6
f 273/4/6 270/4/6 274/4/6
f 270/4/6 263/4/6 274/4/6
f 257/2/6 258/2/6 275/2/6
f 257/2/6 275/2/6 277/2/6
f 275/2/6 276/2/6 277/2/6
f 277/2/6 276/2/6 278/2/6
f 268/2/6 256/2/6 279/2/6
f 267/2/6 268/2/6 279/2/6
f 279/2/6 280/2/6 281/2/6
f 278/2/6 276/2/6 282/2/6
f 282/2/6 276/2/6 283/2/6
f 272/2/6 273/2/6 284/2/6
f 273/2/6 274/2/6 284/2/6
f 282/2/6 283/2/6 285/2/6
f 283/2/6 284/2/6 285/2/6
f 279/2/6 281/2/6 285/2/6
f 281/2/6 282/2/6 285/2/6
f 267/2/6 279/2/6 285/2/6
f 285/2/6 284/2/6 286/2/6
f 286/2/6 284/2/6 287/2/6
f 284/2/6 274/2/6 288/2/6
f 287/2/6 284/2/6 288/2/6
f 288/2/6 274/2/6 289/2/6
f 289/2/6 274/2/6 290/2/6
f 291/2/6 292/2/6 295/2/6
f 295/2/6 292/2/6 296/2/6
f 286/2/6 287/2/6 298/2/6
f 298/2/6 287/2/6 299/2/6
f 288/2/6 289/2/6 300/2/6
f 290/2/6 274/2/6 301/2/6
f 274/2/6 264/2/6 302/2/6
f 301/2/6 274/2/6 302/2/6
f 293/2/6 294/2/6 303/2/6
f 303/2/6 294/2/6 304/2/6
f 290/2/6 301/2/6 305/2/6
f 301/3/6 302/3/6 305/3/6
f 302/2/6 264/2/6 306/2/6
f 305/3/6 302/3/6 306/3/6
f 267/2/6 285/2/6 307/2/6
f 291/2/6 295/2/6 308/2/6
f 308/2/6 295/2/6 309/2/6
f 299/2/6 300/2/6 310/2/6
f 298/2/6 299/2/6 310/2/6
f 297/2/6 298/2/6 310/2/6
f 300/2/6 289/2/6 311/2/6
f 310/2/6 300/2/6 311/2/6
f 305/2/6 306/2/6 312/2/6
f 290/2/6 305/2/6 312/2/6
f 267/2/6 307/2/6 313/2/6
f 311/2/6 312/2/6 313/2/6
f 255/2/6 267/2/6 313/2/6
f 310/2/6 311/2/6 313/2/6
f 308/2/6 309/2/6 313/2/6
f 309/2/6 310/2/6 313/2/6
f 307/2/6 308/2/6 313/2/6
f 312/2/6 306/2/6 314/2/6
f 313/2/6 312/2/6 314/2/6
f 306/2/6 264/2/6 314/2/6
f 313/4/6 314/4/6 315/4/6
f 315/4/6 314/4/6 316/4/6
f 319/1/6 320/1/6 321/1/6
f 319/1/6 321/1/6 323/1/6
f 321/1/6 322/1/6 323/1/6
f 323/1/6 322/1/6 324/1/6
f 317/1/6 318/1/6 325/1/6
f 317/1/6 325/1/6 327/1/6
f 325/1/6 326/1/6 327/1/6
f 327/1/6 326/1/6 328/1/6
f 328/1/6 326/1/6 329/1/6
f 329/1/6 326/1/6 330/1/6
f 324/1/6 322/1/6 331/1/6
f 331/1/6 322/1/6 332/1/6
f 333/1/6 334/1/6 339/1/6
f 339/1/6 334/1/6 340/1/6
f 337/1/6 338/1/6 341/1/6
f 341/1/6 338/1/6 342/1/6
f 340/1/6 334/1/6 344/1/6
f 343/1/6 344/1/6 345/1/6
f 344/1/6 334/1/6 346/1/6
f 345/1/6 344/1/6 346/1/6
f 335/1/6 336/1/6 347/1/6
f 347/1/6 336/1/6 348/1/6
f 337/1/6 341/1/6 349/1/6
f 342/1/6 338/1/6 350/1/6
f 333/1/6 339/1/6 351/1/6
f 351/1/6 339/1/6 352/1/6
f 343/1/6 345/1/6 353/1/6
f 353/1/6 345/1/6 354/1/6
f 349/1/6 350/1/6 355/1/6
f 337/1/6 349/1/6 355/1/6
f 350/1/6 338/1/6 356/1/6
f 355/1/6 350/1/6 356/1/6
